<svg width="37" height="35" viewBox="0 0 37 35" fill="none" xmlns="http://www.w3.org/2000/svg">
<path fill-rule="evenodd" clip-rule="evenodd" d="M3.47485 14.6251V32.8824C3.47485 33.667 4.15596 34.3106 4.986 34.3106H32.014C32.8441 34.3106 33.5251 33.667 33.5251 32.8824V14.6251H3.47485Z" fill="#EDEDED"/>
<path fill-rule="evenodd" clip-rule="evenodd" d="M16.7027 21.6536C19.2113 17.1273 8.75587 16.0343 9.45504 21.6536L10.1866 27.547C10.6963 31.6428 16.2211 30.5461 15.4212 27.547C14.98 25.8979 15.3951 24.009 16.7027 21.6536Z" fill="#FFA21F"/>
<path fill-rule="evenodd" clip-rule="evenodd" d="M27.3152 21.6536C28.0124 16.0343 17.557 17.1273 20.0676 21.6536C21.3733 24.009 21.7903 25.8979 21.349 27.547C20.5471 30.5461 26.074 31.6428 26.5818 27.547L27.3152 21.6536Z" fill="#FFA21F"/>
<path fill-rule="evenodd" clip-rule="evenodd" d="M27.5186 4.6053C23.4143 -0.615991 13.5856 -0.615991 9.48121 4.6053H4.986C4.15386 4.6053 3.47485 5.24897 3.47485 6.03353V14.6253H33.5251V6.03353C33.5251 5.24897 32.8461 4.6053 32.014 4.6053H27.5186Z" fill="#29ABE2"/>
<path fill-rule="evenodd" clip-rule="evenodd" d="M18.5002 4.13306C15.8627 4.13306 13.5033 5.1955 11.9276 6.86559C10.6702 8.20037 9.91064 9.92364 9.91064 11.805H16.1327C16.1327 10.8721 16.7371 10.0721 17.5975 9.73709C17.8756 9.62847 18.1799 9.56763 18.5003 9.56763C19.8079 9.56763 20.8677 10.5692 20.8677 11.805H27.0878C27.0878 9.92371 26.3302 8.20037 25.0728 6.86559C23.4972 5.1955 21.1378 4.13306 18.5002 4.13306Z" fill="#EDEDED"/>
<path fill-rule="evenodd" clip-rule="evenodd" d="M17.5974 9.73721C16.737 10.0722 16.1326 10.8722 16.1326 11.8052H20.8675C20.8675 10.5694 19.8077 9.56775 18.5001 9.56775C18.1797 9.56782 17.8755 9.62866 17.5974 9.73721Z" fill="#FFA21F"/>
<path d="M32.014 3.91597H27.8759C25.7816 1.4577 22.3076 0 18.5001 0C18.4999 0 18.5003 0 18.5 0C14.6927 0 11.2183 1.45783 9.12404 3.91597H4.98604C3.75095 3.91597 2.74609 4.86589 2.74609 6.03354V20.9985C2.74609 21.3792 3.07237 21.6878 3.47489 21.6878C3.87734 21.6878 4.20362 21.3792 4.20362 20.9985V15.3146H15.6368C16.0393 15.3146 16.3656 15.0059 16.3656 14.6252C16.3656 14.2445 16.0394 13.9358 15.6368 13.9358H4.20362V6.03347C4.20362 5.62611 4.55461 5.29464 4.98604 5.29464H9.48132C9.71178 5.29464 9.92857 5.19155 10.0661 5.01662C11.8568 2.73868 15.0097 1.37867 18.5001 1.37867C21.9905 1.37874 25.1434 2.73875 26.934 5.01662C27.0715 5.19155 27.2883 5.29464 27.5187 5.29464H32.014C32.4455 5.29464 32.7965 5.62611 32.7965 6.03347V13.9358H21.3431C20.9406 13.9358 20.6143 14.2445 20.6143 14.6252C20.6143 15.0059 20.9406 15.3146 21.3431 15.3146H32.7965V32.8825C32.7965 33.2829 32.4382 33.6213 32.014 33.6213H4.98604C4.56191 33.6213 4.20362 33.2829 4.20362 32.8825V26.3892C4.20362 26.0086 3.87734 25.6999 3.47489 25.6999C3.07237 25.6999 2.74609 26.0086 2.74609 26.3892V32.8825C2.74609 34.0501 3.75095 35 4.98604 35H32.014C33.2491 35 34.2539 34.0501 34.2539 32.8825V6.03354C34.2539 4.86589 33.2491 3.91597 32.014 3.91597Z" fill="black"/>
<path d="M27.0876 12.4944C27.4902 12.4944 27.8164 12.1857 27.8164 11.805C27.8164 9.78112 27.0108 7.92284 25.6725 6.47478C25.6478 6.44094 25.6201 6.4084 25.5883 6.37833C25.5771 6.3678 25.5653 6.35836 25.5537 6.34866C23.8439 4.57084 21.316 3.44373 18.5001 3.44373C15.6802 3.44373 13.1491 4.57364 11.439 6.35522C11.43 6.36294 11.4206 6.37019 11.4119 6.37839C11.383 6.40581 11.3578 6.43534 11.3348 6.46576C9.99112 7.91511 9.18188 9.77688 9.18188 11.805C9.18188 12.1857 9.50809 12.4944 9.91061 12.4944H16.1327H20.8676H27.0876ZM11.9888 7.89789L12.6094 8.48434C12.7517 8.6188 12.938 8.68593 13.1244 8.68593C13.3111 8.68593 13.4977 8.6186 13.64 8.48379C13.9244 8.21446 13.9242 7.77792 13.6394 7.50878L12.9542 6.86128C14.2151 5.74504 15.8992 5.00594 17.7714 4.85234V5.73069C17.7714 6.11138 18.0977 6.42002 18.5001 6.42002C18.9026 6.42002 19.2289 6.11138 19.2289 5.73069V4.85248C21.1009 5.00608 22.7847 5.74545 24.0454 6.86197L23.3608 7.50878C23.0761 7.77798 23.0759 8.21439 23.3603 8.48379C23.5026 8.6186 23.6893 8.68593 23.8759 8.68593C24.0622 8.68593 24.2486 8.6188 24.3909 8.48434L25.0104 7.89877C25.7243 8.83502 26.1897 9.93233 26.3208 11.1157H21.5087C21.1799 9.83355 19.9561 8.8783 18.5001 8.8783C18.3697 8.8783 18.2415 8.88684 18.1153 8.90174L17.8641 8.01451C17.76 7.64673 17.3605 7.42867 16.9717 7.52683C16.5829 7.62534 16.3522 8.00336 16.4563 8.37114L16.7461 9.39509C16.1287 9.79793 15.6734 10.4067 15.4914 11.1158H10.6773C10.8085 9.93199 11.2743 8.83434 11.9888 7.89789ZM17.033 11.1157C17.3019 10.6072 17.8585 10.257 18.5002 10.257C19.1418 10.257 19.6983 10.6071 19.9672 11.1157H17.033Z" fill="black"/>
<path d="M9.66604 18.5712C8.89858 19.3876 8.57548 20.4813 8.73128 21.734L9.46283 27.6277C9.76454 30.0522 11.5494 30.9127 12.9863 30.9129C12.9864 30.9129 12.9866 30.9129 12.9868 30.9129C14.0491 30.9129 15.0426 30.4766 15.6444 29.746C16.1874 29.0865 16.3591 28.2458 16.1277 27.3779C15.7328 25.9021 16.1205 24.185 17.3481 21.9738C18.1205 20.58 17.8098 19.5477 17.413 18.9272C16.7116 17.8302 15.1744 17.1487 13.4014 17.1487C11.8773 17.1486 10.5158 17.6671 9.66604 18.5712ZM16.1659 19.6407C16.4607 20.1019 16.4242 20.6714 16.0575 21.3331C14.653 23.8628 14.2264 25.8912 14.7146 27.7157C14.837 28.1747 14.7629 28.5726 14.4946 28.8985C14.1717 29.2905 13.594 29.534 12.9867 29.534C12.9866 29.534 12.9865 29.534 12.9864 29.534C12.5598 29.534 11.149 29.3848 10.9103 27.4667L10.1788 21.573C10.0714 20.7103 10.2653 20.0086 10.7552 19.4875C11.3287 18.8774 12.2931 18.5275 13.4014 18.5275C14.6292 18.5274 15.7402 18.9748 16.1659 19.6407Z" fill="black"/>
<path d="M21.1246 29.7452C21.7263 30.4762 22.72 30.9127 23.783 30.9127C25.2201 30.9127 27.005 30.0522 27.3055 27.6276L28.0391 21.7338C28.1945 20.4811 27.8709 19.3875 27.1033 18.5711C26.2532 17.667 24.8916 17.1486 23.3675 17.1486C21.5944 17.1486 20.0574 17.83 19.3564 18.927C18.9598 19.5476 18.6492 20.58 19.4223 21.9737C20.6492 24.187 21.037 25.9042 20.6426 27.3779C20.4107 28.2451 20.5819 29.0857 21.1246 29.7452ZM20.7129 21.3332C20.3457 20.6711 20.3089 20.1015 20.6037 19.6403C21.0291 18.9746 22.1398 18.5274 23.3675 18.5274C24.4759 18.5274 25.4406 18.8773 26.0144 19.4875C26.5044 20.0086 26.6986 20.7104 26.5916 21.5729L25.8581 27.4667C25.6203 29.3849 24.2097 29.5339 23.7831 29.5339C23.1755 29.5339 22.5975 29.2903 22.2747 28.8981C22.0067 28.5724 21.933 28.1747 22.0556 27.7161C22.5432 25.8937 22.1166 23.8655 20.7129 21.3332Z" fill="black"/>
<path d="M3.47489 24.3919C3.87734 24.3919 4.20362 24.0832 4.20362 23.7025V23.6853C4.20362 23.3046 3.87734 22.996 3.47489 22.996C3.07237 22.996 2.74609 23.3046 2.74609 23.6853V23.7025C2.74609 24.0833 3.07237 24.3919 3.47489 24.3919Z" fill="black"/>
<path d="M18.4999 13.9358H18.4798C18.0773 13.9358 17.751 14.2445 17.751 14.6252C17.751 15.0059 18.0773 15.3145 18.4798 15.3145H18.4999C18.9024 15.3145 19.2288 15.0059 19.2288 14.6252C19.2288 14.2445 18.9025 13.9358 18.4999 13.9358Z" fill="black"/>
</svg>
