<svg width="37" height="35" viewBox="0 0 37 35" fill="none" xmlns="http://www.w3.org/2000/svg">
<g clip-path="url(#clip0)">
<path d="M19.4395 10.1336C19.0001 9.46603 17.9728 9.46603 17.5334 10.1336L2.06104 33.6397H18.4864H34.9119L19.4395 10.1336Z" fill="#F4DD45"/>
<path d="M18.4864 9.63293C18.1198 9.63293 17.7531 9.7998 17.5334 10.1336L2.06104 33.6397H4.99235L18.4864 13.139V9.63293Z" fill="#FCC101"/>
<path d="M22.1907 20.9119H18.3418V33.6397H23.3726V22.0298C23.3726 21.4149 22.8407 20.9119 22.1907 20.9119V20.9119Z" fill="#F87C68"/>
<path d="M26.2758 4.21027C26.3487 4.01496 26.1351 3.83654 25.9407 3.93183C24.5243 4.62631 23.5719 6.04966 23.6402 7.67741C23.7279 9.76845 25.5275 11.4659 27.7382 11.5432C29.2339 11.5956 30.5649 10.9184 31.3672 9.85848C31.4925 9.69291 31.338 9.46691 31.1269 9.50662C27.8836 10.1161 25.1826 7.13688 26.2758 4.21027V4.21027Z" fill="#F4DD45"/>
<path d="M28.8945 10.5831C26.6838 10.5058 24.8842 8.80834 24.7964 6.71731C24.7542 5.70911 25.1037 4.77961 25.7123 4.05286C24.4232 4.7833 23.5756 6.13883 23.6402 7.6773C23.7279 9.76834 25.5275 11.4658 27.7382 11.5431C29.1584 11.5928 30.4298 10.9845 31.2414 10.0156C30.5596 10.4018 29.7544 10.6133 28.8945 10.5831Z" fill="#FCC101"/>
<path d="M14.7823 20.9119C14.1322 20.9119 13.6003 21.415 13.6003 22.0299V33.6397H18.4866V20.9119H14.7823Z" fill="#EC625E"/>
<path d="M17.0809 20.9119H14.7823C14.1322 20.9119 13.6003 21.415 13.6003 22.0299V33.6397H15.899V22.0298C15.899 21.4149 16.4309 20.9119 17.0809 20.9119V20.9119Z" fill="#DF4854"/>
<path d="M0.214428 31.823C0.31235 31.8933 0.427473 31.9272 0.541583 31.9272C0.607419 31.9272 0.672749 31.9154 0.734538 31.8932L1.28168 33.1751C1.06321 33.2413 0.905017 33.4348 0.905017 33.6634C0.905017 33.9466 1.14762 34.1761 1.44702 34.1761H35.553C35.8524 34.1761 36.095 33.9466 36.095 33.6634C36.095 33.4347 35.9367 33.2412 35.7183 33.1751L36.2654 31.8932C36.3272 31.9154 36.3925 31.9272 36.4584 31.9272C36.5725 31.9272 36.6877 31.8932 36.7856 31.823C37.0241 31.6518 37.0707 31.3302 36.8898 31.1046L36.7001 30.8681C36.7789 30.6176 36.6449 30.3468 36.3835 30.247C36.3141 30.2205 36.2424 30.2085 36.172 30.2096L20.0971 10.1655C19.8927 9.85512 19.6692 9.43196 19.0419 9.22907V8.70931V6.78932C19.0419 6.50617 18.7993 6.27661 18.4999 6.27661C18.2005 6.27661 17.9579 6.50617 17.9579 6.78932V8.70931V9.22913C17.3382 9.42964 17.1154 9.84288 16.903 10.1655L0.82798 30.2097C0.757591 30.2086 0.685902 30.2206 0.616525 30.247C0.355133 30.3468 0.221076 30.6177 0.29992 30.8681L0.110218 31.1046C-0.0706678 31.3302 -0.0240552 31.6518 0.214428 31.823V31.823ZM17.958 20.4228H14.7956C13.8451 20.4228 13.0718 21.1543 13.0718 22.0535V33.1506H3.05057L17.9579 10.5029C17.958 10.6418 17.958 18.922 17.958 20.4228V20.4228ZM14.1557 22.0535C14.1557 21.7197 14.4428 21.4482 14.7956 21.4482H17.9579V33.1507H14.1557V22.0535ZM23.9283 33.1506V28.8397C23.9283 28.5565 23.6857 28.327 23.3863 28.327C23.0869 28.327 22.8443 28.5565 22.8443 28.8397V33.1506H19.042V21.4482H22.2044C22.5573 21.4482 22.8443 21.7198 22.8443 22.0535V26.4471C22.8443 26.7304 23.0869 26.9599 23.3863 26.9599C23.6857 26.9599 23.9283 26.7304 23.9283 26.4471V22.0535C23.9283 21.1543 23.155 20.4228 22.2044 20.4228H19.042C19.042 20.0652 19.042 11.1217 19.042 10.5028L33.9494 33.1507H23.9283V33.1506ZM35.4664 31.0265L34.822 32.5362L26.3274 19.6309L35.4664 31.0265ZM2.17808 32.5363L1.53367 31.0264L10.6728 19.6307L2.17808 32.5363Z" fill="black"/>
<path d="M31.5425 3.96033C31.2431 3.96033 31.0005 4.18988 31.0005 4.47302V4.57351H30.8943C30.5949 4.57351 30.3523 4.80306 30.3523 5.08621C30.3523 5.36935 30.5949 5.5989 30.8943 5.5989H31.0005V5.69939C31.0005 5.98253 31.2431 6.21209 31.5425 6.21209C31.8419 6.21209 32.0845 5.98253 32.0845 5.69939V5.5989H32.1907C32.4901 5.5989 32.7327 5.36935 32.7327 5.08621C32.7327 4.80306 32.4901 4.57351 32.1907 4.57351H32.0845V4.47302C32.0845 4.18988 31.8419 3.96033 31.5425 3.96033Z" fill="black"/>
<path d="M29.0307 0.82373C28.7313 0.82373 28.4887 1.05329 28.4887 1.33644V1.7317H28.0708C27.7714 1.7317 27.5288 1.96126 27.5288 2.24441C27.5288 2.52757 27.7714 2.75712 28.0708 2.75712H28.4887V3.15239C28.4887 3.43554 28.7313 3.6651 29.0307 3.6651C29.3301 3.6651 29.5727 3.43554 29.5727 3.15239V2.75712H29.9905C30.2899 2.75712 30.5325 2.52757 30.5325 2.24441C30.5325 1.96126 30.2899 1.7317 29.9905 1.7317H29.5727V1.33644C29.5727 1.05329 29.3301 0.82373 29.0307 0.82373V0.82373Z" fill="black"/>
<path d="M25.7048 3.50029C24.0562 4.30866 23.0384 5.96553 23.1122 7.72139C23.211 10.0779 25.2401 11.9921 27.7318 12.0792C29.3415 12.1364 30.8749 11.431 31.8214 10.1807C32.2319 9.63851 31.727 8.89693 31.0348 9.02736C30.1419 9.19526 29.2602 9.06195 28.4848 8.64242C28.2249 8.50173 27.8938 8.58712 27.7452 8.83294C27.5966 9.0787 27.6868 9.39193 27.9466 9.53255C28.7165 9.94915 29.5659 10.1479 30.4389 10.1216C29.723 10.7484 28.7697 11.09 27.7719 11.0545C25.8429 10.9871 24.2718 9.50507 24.1954 7.68078C24.1484 6.56157 24.6736 5.49438 25.5727 4.8025C25.3983 5.74137 25.5419 6.70205 25.9964 7.57099C26.1291 7.82475 26.4542 7.92866 26.7226 7.80315C26.9909 7.67757 27.1007 7.37001 26.968 7.11626C26.5239 6.26741 26.4644 5.30448 26.8005 4.40491C27.0366 3.77257 26.3347 3.19123 25.7048 3.50029V3.50029Z" fill="black"/>
</g>
<defs>
<clipPath id="clip0">
<rect width="37" height="35" fill="white"/>
</clipPath>
</defs>
</svg>
