<svg width="37" height="36" viewBox="0 0 37 36" fill="none" xmlns="http://www.w3.org/2000/svg">
<path d="M16.7141 18C16.7141 18.9577 17.5154 19.7366 18.4998 19.7366C19.0114 19.7366 19.4723 19.5248 19.7984 19.1877H25.7925C26.1204 19.1877 26.4287 19.0632 26.6608 18.8374C26.8929 18.6116 27.0208 18.3116 27.0208 17.9926C27.0208 17.3332 26.4694 16.7975 25.7925 16.7975H19.7848C19.7586 16.7703 19.7306 16.7456 19.7027 16.72V10.8722C19.7027 10.5532 19.5748 10.2532 19.3427 10.0274C19.1105 9.80155 18.8022 9.6771 18.4744 9.6771C17.7967 9.6771 17.2461 10.2128 17.2461 10.8722V16.7653C16.9182 17.0802 16.7141 17.517 16.7141 18ZM18.881 3.66858C21.2842 3.72792 23.546 4.35103 25.5325 5.4052L24.2711 7.53167L24.931 7.90256L26.1924 5.77774C28.1721 6.96214 29.8443 8.58831 31.0616 10.5153L28.8777 11.7418L29.2589 12.3838L31.4436 11.1566C32.5279 13.0893 33.1675 15.2908 33.2285 17.6291H30.7032V18.3709H33.2285C33.1675 20.7092 32.5279 22.9098 31.4436 24.8426L29.2589 23.6154L28.8777 24.2574L31.0607 25.4847C29.8443 27.4109 28.1721 29.0379 26.1924 30.2214L24.931 28.0974L24.2711 28.4683L25.5325 30.594C23.546 31.649 21.2842 32.2713 18.881 32.3306V29.8736H18.1186V32.3306C15.7153 32.2713 13.4527 31.649 11.4662 30.594L12.7276 28.4683L12.0677 28.0974L10.8072 30.2214C8.82665 29.0379 7.15531 27.4109 5.93801 25.4847L8.12186 24.2574L7.74066 23.6154L5.55512 24.8426C4.47167 22.9098 3.83126 20.7092 3.77026 18.3709H6.29634V17.6291H3.77026C3.83126 15.2908 4.47167 13.0893 5.55512 11.1566L7.74066 12.3838L8.12186 11.7418L5.93801 10.5153C7.15531 8.58831 8.82665 6.96214 10.8072 5.77774L12.0677 7.90256L12.7276 7.53167L11.4662 5.4052C13.4527 4.35103 15.7145 3.72792 18.1186 3.66858V6.12638H18.881V3.66858V3.66858Z" fill="#FFCC73"/>
<path d="M18.4996 0.741577C28.2794 0.741577 36.2372 8.48342 36.2372 17.9998C36.2372 27.5153 28.2794 35.258 18.4996 35.258C8.71885 35.258 0.761963 27.5153 0.761963 17.9998C0.761963 8.48342 8.71885 0.741577 18.4996 0.741577ZM18.4996 33.0771C27.0443 33.0771 33.9957 26.3136 33.9957 17.9998C33.9957 9.68594 27.0443 2.92162 18.4996 2.92162C9.95478 2.92162 3.00256 9.68594 3.00256 17.9998C3.00256 26.3136 9.95478 33.0771 18.4996 33.0771Z" fill="#4489D3"/>
<path d="M10.8073 30.2214L12.0678 28.0974L12.7277 28.4683L11.4664 30.5939C13.4529 31.6489 15.7155 32.2712 18.1187 32.3305V29.8735H18.8811V32.3305C21.2844 32.2712 23.5461 31.6489 25.5326 30.5939L24.2713 28.4683L24.9312 28.0974L26.1925 30.2214C28.1722 29.0378 29.8444 27.4108 31.0608 25.4846L28.8778 24.2573L29.259 23.6153L31.4437 24.8425C32.528 22.9098 33.1676 20.7091 33.2286 18.3708H30.7034V17.629H33.2286C33.1676 15.2907 32.528 13.0893 31.4437 11.1565L29.259 12.3837L28.8778 11.7417L31.0617 10.5152C29.8444 8.58822 28.1722 6.96205 26.1925 5.77765L24.9312 7.90248L24.2713 7.53158L25.5326 5.40511C23.5461 4.35094 21.2844 3.72783 18.8811 3.66849V6.1263H18.1187V3.66849C15.7146 3.72783 13.4529 4.35094 11.4664 5.40511L12.7277 7.53158L12.0678 7.90248L10.8073 5.77765C8.8268 6.96205 7.15545 8.58822 5.93816 10.5152L8.122 11.7417L7.7408 12.3837L5.55527 11.1565C4.47182 13.0893 3.8314 15.2907 3.77041 17.629H6.29649V18.3708H3.77041C3.8314 20.7091 4.47182 22.9098 5.55527 24.8425L7.7408 23.6153L8.122 24.2573L5.93816 25.4846C7.15545 27.4108 8.8268 29.0378 10.8073 30.2214ZM18.4999 2.92175C27.0447 2.92175 33.9961 9.68608 33.9961 17.9999C33.9961 26.3138 27.0447 33.0773 18.4999 33.0773C9.95515 33.0773 3.00293 26.3138 3.00293 17.9999C3.00293 9.68608 9.95515 2.92175 18.4999 2.92175Z" fill="black"/>
<path d="M26.2584 17.9925C26.2584 18.1137 26.2093 18.2274 26.1212 18.3131C26.0339 18.398 25.9162 18.4458 25.7925 18.4458H20.2227C20.2617 18.3032 20.2846 18.154 20.2846 17.9999C20.2846 17.84 20.2609 17.6859 20.2185 17.5392H25.7925C26.0492 17.5392 26.2584 17.7428 26.2584 17.9925Z" fill="#4489D3"/>
<path d="M19.5223 18.0003C19.5223 18.5484 19.0632 18.9951 18.4999 18.9951C17.9357 18.9951 17.4766 18.5484 17.4766 18.0003C17.4766 17.4514 17.9357 17.0046 18.4999 17.0046C19.0632 17.0046 19.5223 17.4514 19.5223 18.0003Z" fill="#F97946"/>
<path d="M18.5003 18.995C19.0636 18.995 19.5228 18.5483 19.5228 18.0002C19.5228 17.4512 19.0636 17.0045 18.5003 17.0045C17.9361 17.0045 17.477 17.4512 17.477 18.0002C17.477 18.5483 17.9361 18.995 18.5003 18.995ZM18.009 16.3311C18.1649 16.2874 18.3292 16.2627 18.5003 16.2627C18.6519 16.2627 18.7993 16.2833 18.9408 16.3188V10.8724C18.9408 10.7512 18.8917 10.6375 18.8036 10.5517C18.7155 10.466 18.5986 10.419 18.4749 10.419C18.2174 10.419 18.009 10.6218 18.009 10.8724V16.3311ZM27.0214 17.9927C27.0214 18.3117 26.8935 18.6117 26.6614 18.8376C26.4292 19.0634 26.1209 19.1879 25.7931 19.1879H19.7989C19.4728 19.525 19.012 19.7368 18.5003 19.7368C17.516 19.7368 16.7146 18.9579 16.7146 18.0002C16.7146 17.5172 16.9188 17.0803 17.2466 16.7655V10.8724C17.2466 10.213 17.7972 9.67725 18.4749 9.67725C18.8027 9.67725 19.1111 9.8017 19.3432 10.0275C19.5753 10.2534 19.7032 10.5534 19.7032 10.8724V16.7202C19.7312 16.7457 19.7591 16.7704 19.7854 16.7976H25.7931C26.4699 16.7976 27.0214 17.3334 27.0214 17.9927ZM26.259 17.9927C26.259 17.743 26.0497 17.5394 25.7931 17.5394H20.2191C20.2614 17.6861 20.2852 17.8403 20.2852 18.0002C20.2852 18.1543 20.2623 18.3035 20.2233 18.4461H25.7931C25.9167 18.4461 26.0345 18.3983 26.1217 18.3134C26.2098 18.2276 26.259 18.1139 26.259 17.9927Z" fill="black"/>
<path d="M18.4745 10.4188C18.5981 10.4188 18.715 10.4658 18.8031 10.5515C18.8912 10.6372 18.9404 10.751 18.9404 10.8721V16.3185C18.7989 16.2831 18.6515 16.2625 18.4999 16.2625C18.3288 16.2625 18.1644 16.2872 18.0085 16.3309V10.8721C18.0085 10.6216 18.2169 10.4188 18.4745 10.4188Z" fill="#4489D3"/>
<path d="M0.762398 18C0.762398 27.5155 8.71929 35.2582 18.5 35.2582C28.2799 35.2582 36.2376 27.5155 36.2376 18C36.2376 8.48363 28.2799 0.741792 18.5 0.741792C8.71929 0.741792 0.762398 8.48363 0.762398 18ZM31.581 5.27167C35.0754 8.67155 37 13.1915 37 18C37 22.8076 35.0754 27.3276 31.581 30.7275C28.0867 34.1274 23.4412 36 18.5 36C13.558 36 8.91243 34.1274 5.41811 30.7275C1.92378 27.3276 0 22.8076 0 18C0 13.1915 1.92378 8.67155 5.41811 5.27167C8.91243 1.87179 13.558 0 18.5 0C23.4412 0 28.0867 1.87179 31.581 5.27167Z" fill="black"/>
</svg>
