<svg width="45" height="44" viewBox="0 0 45 44" fill="none" xmlns="http://www.w3.org/2000/svg">
<g clip-path="url(#clip0)" filter="url(#filter0_d)">
<path fill-rule="evenodd" clip-rule="evenodd" d="M18.6364 28.8737L20.7109 26.8572L21.747 26.8991C23.0884 26.9548 23.8318 26.7177 24.2946 26.2674L25.8878 24.7171L18.71 17.731C19.7975 17.8566 20.6658 17.215 21.2391 16.6869C21.7122 16.2526 21.8679 15.7803 21.5054 15.6029L21.4746 15.583L18.8391 13.9989C18.7223 13.9411 18.6077 13.8913 18.495 13.8494C17.1148 13.3334 16.1645 13.957 15.6198 14.7282C15.4764 14.9294 15.3619 15.1386 15.2737 15.3438L13.6313 18.3129L14.1351 21.6186L8.98682 26.6281L14.9667 32.4465L16.5681 30.8882L18.6241 28.8876L18.6364 28.8737Z" fill="#FDD99B"/>
<path fill-rule="evenodd" clip-rule="evenodd" d="M20.1089 12.2532L17.1458 9.36804L13.6274 12.7913L15.6199 14.7282C16.1647 13.957 17.117 13.3334 18.4952 13.8494L20.1089 12.2532Z" fill="#B3B3B3"/>
<path fill-rule="evenodd" clip-rule="evenodd" d="M13.6274 12.7912L17.1458 9.36794L20.7213 5.88881C21.0243 5.59392 21.0243 5.11164 20.7213 4.81675L16.7259 0.929176C16.4228 0.634285 15.9272 0.634285 15.6221 0.929176L13.0808 3.402L7.49629 8.83582L4.95485 11.3086C4.65177 11.6056 4.65177 12.0878 4.95485 12.3827L8.95013 16.2702C9.25321 16.5652 9.74874 16.5652 10.0519 16.2702L13.6274 12.7912Z" fill="#29ABE2"/>
<path d="M7.4962 8.83566L13.0808 3.40198L11.0964 1.47123L5.51182 6.90491L7.4962 8.83566Z" fill="#7FCFE2"/>
<path fill-rule="evenodd" clip-rule="evenodd" d="M21.4747 15.5828L24.0243 13.102C25.5601 11.6096 23.1088 9.28819 21.6181 10.7607L20.1089 12.2531L18.4951 13.8492C18.6078 13.8911 18.7224 13.9409 18.8392 13.9987L21.4747 15.5828Z" fill="#FDD99B"/>
<path fill-rule="evenodd" clip-rule="evenodd" d="M26.1255 15.834C27.6102 14.4273 25.7016 12.1138 24.0244 13.1021L21.4748 15.583L21.5056 15.6029C21.868 15.7803 21.7124 16.2526 21.2393 16.687C21.3109 18.1136 23.0823 18.7134 24.1985 17.6573C24.2004 17.6573 24.2004 17.6573 24.2026 17.6554L26.1255 15.834Z" fill="#FDD99B"/>
<path fill-rule="evenodd" clip-rule="evenodd" d="M27.854 26.6301L31.3701 23.2088L29.398 21.2919L28.3147 22.3559C27.1105 23.5376 24.8599 21.6705 26.4328 20.1521C24.78 21.4633 22.5254 19.2594 24.1985 17.6574C23.0823 18.7135 21.311 18.1137 21.2393 16.687C20.666 17.2151 19.7977 17.8567 18.7102 17.7311L25.888 24.7172L27.854 26.6301Z" fill="#B3B3B3"/>
<path fill-rule="evenodd" clip-rule="evenodd" d="M24.2027 17.6553C24.2006 17.6573 24.2006 17.6573 24.1985 17.6573C24.2005 17.6573 24.2005 17.6573 24.2027 17.6553ZM28.2184 18.4244C29.7052 16.9718 27.6369 14.788 26.1256 15.834L24.2027 17.6553L24.1985 17.6573C22.5255 19.2593 24.78 21.4631 26.4328 20.152C26.486 20.1002 26.5454 20.0484 26.6089 19.9966L28.2184 18.4244Z" fill="#FDD99B"/>
<path fill-rule="evenodd" clip-rule="evenodd" d="M30.0512 20.6523C31.5318 19.1957 29.2833 17.482 28.2184 18.4245L26.6088 19.9967C26.5514 20.0525 26.492 20.1042 26.4328 20.1521C24.8598 21.6705 27.1105 23.5376 28.3147 22.3559L29.398 21.2919L30.0512 20.6523Z" fill="#FDD99B"/>
<path fill-rule="evenodd" clip-rule="evenodd" d="M31.9168 32.596L37.5013 27.1641L40.0448 24.6893C40.1943 24.5418 40.27 24.3485 40.2722 24.1553C40.2722 24.1533 40.2722 24.1533 40.2722 24.1512C40.2701 23.9579 40.1943 23.7647 40.0448 23.6172L36.0495 19.7298C35.7464 19.4348 35.2487 19.4348 34.9457 19.7298L31.3701 23.2088L27.854 26.6301L24.2783 30.1112C23.9753 30.4061 23.9753 30.8883 24.2783 31.1832L28.2738 35.0708C28.5769 35.3657 29.0724 35.3657 29.3755 35.0708L31.9168 32.596Z" fill="#29ABE2"/>
<path fill-rule="evenodd" clip-rule="evenodd" d="M33.9029 34.5287L39.4875 29.0949L37.501 27.1641L31.9165 32.5959L33.9029 34.5287Z" fill="#7FCFE2"/>
<path d="M40.5594 23.1165L36.564 19.229C36.28 18.9525 35.9012 18.8003 35.4975 18.8003C35.0937 18.8003 34.7149 18.9526 34.431 19.229L31.3701 22.2079L30.425 21.2893L30.5683 21.1486C31.6167 20.1187 31.3433 18.8873 30.6456 18.1789C30.3242 17.8527 29.8983 17.6099 29.4469 17.5036C29.5108 16.8953 29.3144 16.2661 28.8521 15.7352C28.4819 15.3099 27.9531 14.9905 27.3743 14.8868C27.4383 14.2916 27.2614 13.6713 26.8363 13.1366C26.4086 12.5987 25.8369 12.2726 25.2335 12.181C25.2516 11.9413 25.2279 11.6963 25.1602 11.4523C24.9244 10.603 24.1754 9.88144 23.2965 9.65665C22.4979 9.45246 21.6973 9.6738 21.0994 10.2642L20.105 11.2477L18.1747 9.36816L21.2359 6.38965C21.8234 5.81801 21.8234 4.88791 21.2359 4.31627L17.2404 0.428555C16.9564 0.152227 16.5779 0 16.1747 0C15.7724 0 15.3939 0.151594 15.1074 0.428625L13.0806 2.40068L11.6109 0.970594C11.4744 0.837773 11.2893 0.763172 11.0962 0.763172C10.9032 0.763172 10.718 0.837773 10.5815 0.970594L4.99704 6.40448C4.71282 6.68102 4.71282 7.12934 4.99704 7.40588L6.46685 8.83596L4.43828 10.8098C3.85322 11.383 3.85401 12.3133 4.44002 12.8835L8.43537 16.771C8.71937 17.0474 9.09783 17.1997 9.50092 17.1997C9.90402 17.1997 10.2824 17.0474 10.5664 16.771L13.6276 13.7925L14.7087 14.8434C14.6768 14.9069 14.6459 14.9713 14.6169 15.0372L12.9906 17.9772C12.9163 18.1116 12.8885 18.2658 12.9116 18.4167L13.3616 21.3699L8.47229 26.1273C8.18807 26.4038 8.18807 26.8521 8.47229 27.1287L14.4521 32.9471C14.5886 33.0799 14.7736 33.1545 14.9667 33.1545C15.1598 33.1545 15.3448 33.0799 15.4813 32.9471L17.0828 31.3888C17.367 31.1123 17.367 30.6639 17.0827 30.3874C16.7986 30.1108 16.3378 30.1108 16.0535 30.3874L14.9667 31.4449L10.0161 26.628L14.6498 22.1193C14.8128 21.9608 14.8889 21.7365 14.8551 21.5147L14.3868 18.4415L15.9147 15.6794C15.9259 15.6591 15.9362 15.6383 15.9453 15.617C16.0193 15.4449 16.1089 15.2852 16.21 15.1413C16.2179 15.1307 16.2258 15.1201 16.233 15.1091C16.4629 14.7929 16.7497 14.5581 17.0522 14.4492C17.4608 14.302 17.9428 14.3589 18.485 14.6183L20.8613 16.0479C20.8288 16.0851 20.7888 16.1268 20.7397 16.1719C20.0492 16.8059 19.4528 17.0857 18.8512 17.0363C18.8183 17.03 18.785 17.0266 18.7516 17.0248C18.5493 16.996 18.3458 16.9307 18.1373 16.8289C17.8126 16.6706 17.4178 16.7693 17.2117 17.0603C17.0057 17.3512 17.0517 17.7454 17.3194 17.9841C17.6054 18.2391 18.2968 19.1197 17.995 19.7013C17.8137 20.0504 17.9577 20.4763 18.3165 20.6526C18.6753 20.8289 19.113 20.6889 19.2942 20.3398C19.4345 20.0695 19.5049 19.7954 19.5237 19.525C21.0845 21.0444 23.1189 23.0242 24.8587 24.7172L23.78 25.7667C23.565 25.9759 23.1233 26.2474 21.7773 26.1915L20.7411 26.1497C20.3395 26.134 20.0004 26.4371 19.9838 26.8279C19.9672 27.2186 20.2791 27.5486 20.6808 27.5648L21.7161 27.6066C21.8508 27.6122 21.9814 27.615 22.1081 27.615C23.3546 27.615 24.2192 27.3424 24.8094 26.7681L25.8879 25.7186C26.2236 26.0452 26.5379 26.3511 26.8254 26.6308L23.7636 29.6105C23.1761 30.1821 23.1761 31.1123 23.7635 31.6838L27.7588 35.5733C28.0436 35.8485 28.4221 36.0001 28.8243 36.0001C29.2275 36.0001 29.6059 35.8478 29.89 35.5715L31.9178 33.5985L33.3885 35.0295C33.5251 35.1624 33.7101 35.237 33.9032 35.237C34.0962 35.237 34.2814 35.1624 34.4179 35.0295L40.0024 29.5957C40.1389 29.4628 40.2156 29.2826 40.2155 29.0947C40.2155 28.9069 40.1387 28.7267 40.0021 28.594L38.5308 27.1639L40.5595 25.19C41.1469 24.6182 41.1469 23.6881 40.5594 23.1165ZM6.541 6.90518L11.0963 2.47275L12.0514 3.40214L9.77915 5.61312L7.49613 7.8345L6.541 6.90518ZM9.53713 15.7697C9.51834 15.788 9.48351 15.788 9.46472 15.7697L5.46937 11.8821C5.44986 11.8631 5.45072 11.8278 5.46937 11.8095L8.01052 9.33694C8.01059 9.33687 8.01073 9.3368 8.01081 9.33666L10.8074 6.61549L16.1351 1.43163C16.1456 1.42137 16.159 1.41623 16.1747 1.41623C16.1895 1.41623 16.2018 1.42087 16.2112 1.43002L20.2066 5.31759C20.2256 5.33609 20.2256 5.36984 20.2066 5.38826L9.53713 15.7697ZM30.3405 23.209L27.8539 25.6286C27.4241 25.2103 26.9318 24.7314 26.4026 24.2165C26.4026 24.2164 26.4026 24.2164 26.4026 24.2164C26.4026 24.2164 26.4026 24.2164 26.4025 24.2163C24.4419 22.3086 21.9689 19.902 20.2243 18.2035C20.4449 18.1133 20.6652 17.9989 20.8849 17.8609C21.1422 18.249 21.52 18.5568 21.986 18.7354C22.2782 18.8474 22.5816 18.9024 22.8836 18.9034C22.8837 19.0898 22.907 19.2774 22.957 19.4634C23.1768 20.2816 23.8688 20.9547 24.7199 21.1785C24.8688 21.2176 25.0182 21.242 25.1672 21.2527C25.1654 21.3939 25.1784 21.5359 25.2083 21.6775C25.3731 22.459 26.0025 23.1155 26.8119 23.3501C27.0113 23.4079 27.2125 23.4362 27.4104 23.4361C27.9388 23.4361 28.4441 23.2345 28.8318 22.8542L29.4008 22.2953L30.3405 23.209ZM29.5341 20.1518L28.8834 20.7911C28.8832 20.7912 28.8831 20.7913 28.883 20.7914C28.8829 20.7915 28.8827 20.7917 28.8826 20.7918L27.7979 21.8572C27.6408 22.0113 27.4487 22.0569 27.2272 21.9928C26.9346 21.908 26.6907 21.6613 26.6341 21.3929C26.5752 21.1133 26.7374 20.8614 26.9283 20.6717C26.9953 20.617 27.0607 20.5585 27.1243 20.4963L27.1289 20.4919C27.129 20.4917 27.1291 20.4916 27.1293 20.4915L28.7132 18.9442C28.9286 18.7617 29.3488 18.9092 29.5946 19.1588C29.9048 19.4737 29.8844 19.8077 29.5341 20.1518ZM27.7415 16.6506C27.8779 16.8073 28.2783 17.3623 27.7027 17.9247L26.1075 19.4828C26.0582 19.5239 26.0109 19.5657 25.9653 19.6083C25.6944 19.8193 25.3978 19.8898 25.0995 19.8113C24.749 19.7192 24.4539 19.4354 24.3652 19.1052C24.2794 18.7857 24.3993 18.4593 24.7118 18.1612L26.5818 16.3901C27.056 16.0921 27.5314 16.4093 27.7415 16.6506ZM25.6847 14.0029C25.7801 14.123 26.2254 14.7509 25.6177 15.3266L23.695 17.1476C23.2954 17.5258 22.8257 17.5351 22.5193 17.4177C22.3917 17.3688 22.1259 17.2314 22.015 16.9118C22.3338 16.5264 22.4771 16.1237 22.4211 15.7518C22.4174 15.7269 22.4111 15.7028 22.4056 15.6785L24.4655 13.6741C24.9683 13.4212 25.4329 13.6862 25.6847 14.0029ZM22.1366 11.2577C22.3711 11.0261 22.6294 10.9505 22.9264 11.0263C23.3054 11.1232 23.6538 11.4577 23.7549 11.8216C23.8346 12.1085 23.7545 12.3635 23.5097 12.6014L21.3665 14.6867L19.6895 13.6778L22.1366 11.2577ZM16.5471 13.121C16.2012 13.2455 15.8771 13.4418 15.5869 13.6953L14.6568 12.7911L17.1454 10.3697L19.0839 12.2572L18.286 13.0464C17.5459 12.8716 16.9533 12.9747 16.5471 13.121ZM38.4582 29.0951L33.9031 33.5273L32.947 32.5969L37.5015 28.1652L38.4582 29.0951ZM39.5301 24.1885L36.8984 26.7492L31.4022 32.0951C31.3951 32.1019 31.3889 32.1095 31.3822 32.1166L28.8607 34.57C28.8413 34.589 28.8033 34.5864 28.7864 34.5702L24.7929 30.6824C24.7835 30.6733 24.7787 30.6614 24.7787 30.6471C24.7787 30.6328 24.7835 30.621 24.793 30.6117L35.4604 20.2302C35.4697 20.2212 35.4822 20.2166 35.4975 20.2166C35.5129 20.2166 35.5254 20.2212 35.5348 20.2304L39.5302 24.118C39.5396 24.1271 39.5443 24.1389 39.5443 24.1532C39.5443 24.1674 39.5395 24.1793 39.5301 24.1885Z" fill="black"/>
<path d="M19.1106 28.3367C18.8058 28.0818 18.3463 28.1157 18.0843 28.4122L18.072 28.4261C17.8101 28.7227 17.8449 29.1698 18.1497 29.4247C18.287 29.5395 18.4558 29.5957 18.6237 29.5957C18.8285 29.5957 19.0321 29.5121 19.176 29.3491L19.1883 29.3352C19.4503 29.0386 19.4155 28.5915 19.1106 28.3367Z" fill="black"/>
</g>
<defs>
<filter id="filter0_d" x="0" y="0" width="45" height="44" filterUnits="userSpaceOnUse" color-interpolation-filters="sRGB">
<feFlood flood-opacity="0" result="BackgroundImageFix"/>
<feColorMatrix in="SourceAlpha" type="matrix" values="0 0 0 0 0 0 0 0 0 0 0 0 0 0 0 0 0 0 127 0"/>
<feOffset dy="4"/>
<feGaussianBlur stdDeviation="2"/>
<feColorMatrix type="matrix" values="0 0 0 0 0 0 0 0 0 0 0 0 0 0 0 0 0 0 0.25 0"/>
<feBlend mode="normal" in2="BackgroundImageFix" result="effect1_dropShadow"/>
<feBlend mode="normal" in="SourceGraphic" in2="effect1_dropShadow" result="shape"/>
</filter>
<clipPath id="clip0">
<rect width="37" height="36" fill="white" transform="translate(4)"/>
</clipPath>
</defs>
</svg>
