<svg width="45" height="45" viewBox="0 0 45 45" fill="none" xmlns="http://www.w3.org/2000/svg">
<g filter="url(#filter0_d)">
<path d="M22.5 36.5905C32.398 36.5905 40.4219 28.715 40.4219 19C40.4219 9.28506 32.398 1.40955 22.5 1.40955C12.602 1.40955 4.57812 9.28506 4.57812 19C4.57812 28.715 12.602 36.5905 22.5 36.5905Z" fill="#576FA5"/>
<path d="M22.5 1.40955C22.3308 1.40955 22.1622 1.41238 21.9941 1.41692C31.6582 1.67979 39.4101 9.45122 39.4101 19C39.4101 28.5488 31.6582 36.3201 21.9941 36.5831C22.1622 36.5876 22.3308 36.5905 22.5 36.5905C32.3979 36.5905 40.4219 28.7149 40.4219 19C40.4219 9.28511 32.3979 1.40955 22.5 1.40955V1.40955Z" fill="#395288"/>
<path d="M22.5 36.5905C22.6692 36.5905 22.8378 36.5876 23.0059 36.5831C13.3418 36.3201 5.58984 28.5488 5.58984 19C5.58984 9.45122 13.3418 1.67979 23.0059 1.41692C22.8378 1.41238 22.6692 1.40955 22.5 1.40955C12.6021 1.40955 4.57812 9.28511 4.57812 19C4.57812 28.7149 12.6021 36.5905 22.5 36.5905Z" fill="#758EC3"/>
<path d="M22.5003 34.4764C31.2087 34.4764 38.2683 27.5474 38.2683 19C38.2683 10.4527 31.2087 3.52368 22.5003 3.52368C13.792 3.52368 6.73242 10.4527 6.73242 19C6.73242 27.5474 13.792 34.4764 22.5003 34.4764Z" fill="#F4EFED"/>
<path d="M33.6323 8.04028L31.6389 9.9968C33.9922 12.298 35.4487 15.482 35.4487 19.0001C35.4487 22.5097 33.9994 25.6871 31.6561 27.987L33.6495 29.9435C36.503 27.1428 38.2678 23.2738 38.2678 19.0001C38.2677 14.718 36.4956 10.8423 33.6323 8.04028V8.04028Z" fill="#FF4397"/>
<path d="M33.6495 30.2273C33.5729 30.2273 33.4993 30.1973 33.4451 30.1441L31.4517 28.1876C31.3389 28.0768 31.3389 27.8972 31.4517 27.7865C33.8429 25.4395 35.1597 22.3191 35.1597 19.0002C35.1597 15.6727 33.8369 12.5466 31.435 10.1978C31.3805 10.1446 31.35 10.0724 31.3499 9.99711C31.3499 9.92178 31.3802 9.84943 31.4345 9.79623L33.4279 7.83972C33.5408 7.72893 33.7235 7.72893 33.8364 7.83944C36.8805 10.8182 38.5567 14.7819 38.5567 19.0003C38.5567 23.21 36.8865 27.1677 33.8539 30.1443C33.7997 30.1973 33.7261 30.2273 33.6495 30.2273ZM32.0627 27.9849L33.6476 29.5405C36.443 26.6951 37.9786 22.9637 37.9786 19.0002C37.9786 15.0281 36.4368 11.2904 33.6307 8.44305L32.0459 9.99852C34.4289 12.4304 35.7378 15.6157 35.7378 19.0002C35.7378 22.376 34.435 25.5553 32.0627 27.9849V27.9849Z" fill="#690589"/>
<path d="M22.5003 34.7601C13.6465 34.7601 6.44336 27.6902 6.44336 19C6.44336 10.3099 13.6465 3.23999 22.5003 3.23999C31.3542 3.23999 38.5573 10.3099 38.5573 19C38.5573 27.6902 31.3542 34.7601 22.5003 34.7601V34.7601ZM22.5003 3.80742C13.9652 3.80742 7.02148 10.6227 7.02148 19C7.02148 27.3774 13.9652 34.1927 22.5003 34.1927C31.0355 34.1927 37.9792 27.3774 37.9792 19C37.9792 10.6227 31.0355 3.80742 22.5003 3.80742V3.80742Z" fill="#690589"/>
<path d="M8.75223 14.7088C8.72101 14.7088 8.68921 14.7038 8.65799 14.6932C8.5071 14.6421 8.42689 14.4805 8.47906 14.3326C8.68618 13.7433 8.93015 13.1603 9.20476 12.5998C9.27399 12.4586 9.44699 12.3995 9.59051 12.467C9.73446 12.5349 9.79502 12.7045 9.72593 12.8456C9.46101 13.3864 9.22542 13.9488 9.02568 14.5174C8.9842 14.635 8.87219 14.7088 8.75223 14.7088V14.7088Z" fill="#690589"/>
<path d="M22.5 36.8742C12.4584 36.8742 4.28906 28.8559 4.28906 19C4.28906 9.14412 12.4584 1.12585 22.5 1.12585C32.5416 1.12585 40.7109 9.14412 40.7109 19C40.7109 28.8559 32.5416 36.8742 22.5 36.8742ZM22.5 1.69329C12.7772 1.69329 4.86719 9.45706 4.86719 19C4.86719 28.543 12.7772 36.3068 22.5 36.3068C32.2228 36.3068 40.1328 28.543 40.1328 19C40.1328 9.45706 32.2228 1.69329 22.5 1.69329Z" fill="#690589"/>
<path d="M22.5 5.48121C22.3404 5.48121 22.2109 5.35411 22.2109 5.1975V3.52371C22.2109 3.3671 22.3404 3.23999 22.5 3.23999C22.6596 3.23999 22.7891 3.3671 22.7891 3.52371V5.1975C22.7891 5.35411 22.6596 5.48121 22.5 5.48121Z" fill="#690589"/>
<path d="M38.2682 19.2837H36.563C36.4034 19.2837 36.2739 19.1566 36.2739 19C36.2739 18.8434 36.4034 18.7163 36.563 18.7163H38.2682C38.4277 18.7163 38.5572 18.8434 38.5572 19C38.5572 19.1566 38.4277 19.2837 38.2682 19.2837Z" fill="#690589"/>
<path d="M8.4376 19.2837H6.73242C6.57286 19.2837 6.44336 19.1566 6.44336 19C6.44336 18.8434 6.57286 18.7163 6.73242 18.7163H8.4376C8.59716 18.7163 8.72666 18.8434 8.72666 19C8.72666 19.1566 8.59731 19.2837 8.4376 19.2837Z" fill="#690589"/>
<path d="M12.5559 9.52387C12.4819 9.52387 12.408 9.49621 12.3515 9.44074L11.1457 8.25722C11.0328 8.14643 11.0328 7.96683 11.1457 7.85604C11.2586 7.74525 11.4415 7.74525 11.5544 7.85604L12.7603 9.03957C12.8731 9.15036 12.8731 9.32995 12.7603 9.44074C12.7039 9.49607 12.6299 9.52387 12.5559 9.52387Z" fill="#690589"/>
<path d="M11.3501 30.227C11.2761 30.227 11.2022 30.1993 11.1457 30.1439C11.0328 30.0331 11.0328 29.8535 11.1457 29.7427L12.3515 28.5592C12.4644 28.4484 12.6474 28.4484 12.7603 28.5592C12.8731 28.67 12.8731 28.8496 12.7603 28.9603L11.5544 30.1439C11.4981 30.1993 11.4241 30.227 11.3501 30.227V30.227Z" fill="#690589"/>
<path d="M20.5159 20.9146C19.2809 19.7024 19.5288 17.6751 21.021 16.7842L24.2825 14.8371L30.4745 11.1403L26.7081 17.2178L24.7241 20.4188C23.8164 21.8833 21.7509 22.1268 20.5159 20.9146Z" fill="#7BAC51"/>
<path d="M22.4998 20.2346C23.1943 20.2346 23.7573 19.682 23.7573 19.0003C23.7573 18.3186 23.1943 17.766 22.4998 17.766C21.8052 17.766 21.2422 18.3186 21.2422 19.0003C21.2422 19.682 21.8052 20.2346 22.4998 20.2346Z" fill="#FF4397"/>
<path d="M22.5002 20.518C21.6475 20.518 20.9536 19.8371 20.9536 19C20.9536 18.1629 21.6475 17.4819 22.5002 17.4819C23.353 17.4819 24.0469 18.1629 24.0469 19C24.0469 19.8371 23.353 20.518 22.5002 20.518ZM22.5002 18.0494C21.9662 18.0494 21.5317 18.4758 21.5317 19C21.5317 19.5241 21.9662 19.9506 22.5002 19.9506C23.0343 19.9506 23.4687 19.5241 23.4687 19C23.4687 18.4758 23.0343 18.0494 22.5002 18.0494V18.0494Z" fill="#690589"/>
<path d="M22.4153 21.9733C21.6285 21.9733 20.8768 21.6701 20.3112 21.115C19.6594 20.4754 19.3486 19.5932 19.4585 18.6949C19.5683 17.7967 20.0828 17.0119 20.8705 16.5418L30.324 10.8977C30.4381 10.8297 30.5845 10.8472 30.6786 10.9394C30.7728 11.0319 30.7904 11.1757 30.7212 11.2875L24.9707 20.5661C24.4918 21.3389 23.6921 21.8441 22.7771 21.952C22.6559 21.9662 22.5351 21.9733 22.4153 21.9733V21.9733ZM29.6103 11.9879L21.1707 17.0265C20.5358 17.4056 20.1209 18.0384 20.0324 18.7626C19.9438 19.4868 20.1944 20.1981 20.7199 20.7139C21.2454 21.2295 21.9704 21.4755 22.708 21.3887C23.4458 21.3017 24.0904 20.8945 24.4766 20.2714L29.6103 11.9879Z" fill="#690589"/>
<path d="M28.6998 30.1072H16.2996C15.9005 30.1072 15.5769 29.7896 15.5769 29.3979V24.9006C15.5769 24.5089 15.9005 24.1913 16.2996 24.1913H28.6998C29.0988 24.1913 29.4224 24.5089 29.4224 24.9006V29.3979C29.4224 29.7896 29.099 30.1072 28.6998 30.1072Z" fill="#FCC24C"/>
<path d="M28.7004 24.1912H27.6887C28.0878 24.1912 28.4114 24.5088 28.4114 24.9005V29.3978C28.4114 29.7895 28.0878 30.1071 27.6887 30.1071H28.7004C29.0995 30.1071 29.4231 29.7895 29.4231 29.3978V24.9005C29.4231 24.5088 29.0996 24.1912 28.7004 24.1912Z" fill="#DEA42E"/>
<path d="M16.2996 30.1072H17.3113C16.9122 30.1072 16.5886 29.7896 16.5886 29.3979V24.9006C16.5886 24.5089 16.9122 24.1913 17.3113 24.1913H16.2996C15.9005 24.1913 15.5769 24.5089 15.5769 24.9006V29.3979C15.5769 29.7896 15.9004 30.1072 16.2996 30.1072Z" fill="#FCE06A"/>
<path d="M28.6998 30.391H16.2996C15.7418 30.391 15.2878 29.9455 15.2878 29.398V24.9005C15.2878 24.3529 15.7418 23.9075 16.2996 23.9075H28.6999C29.2577 23.9075 29.7116 24.3529 29.7116 24.9005V29.398C29.7115 29.9455 29.2577 30.391 28.6998 30.391ZM16.2996 24.4749C16.0605 24.4749 15.866 24.6658 15.866 24.9005V29.398C15.866 29.6326 16.0605 29.8235 16.2996 29.8235H28.6999C28.939 29.8235 29.1335 29.6326 29.1335 29.398V24.9005C29.1335 24.6658 28.939 24.4749 28.6999 24.4749H16.2996Z" fill="#690589"/>
<path d="M17.2319 28.6443V25.6789C17.2319 25.532 17.3559 25.4 17.5161 25.4C17.6761 25.4 17.8001 25.5318 17.8001 25.6789V27.1338L19.4735 25.4864C19.5871 25.3749 19.7627 25.3749 19.8763 25.4864C19.9847 25.5928 19.9847 25.7703 19.8763 25.8818L18.74 26.992L19.8865 28.4671C19.9899 28.5838 19.9692 28.7612 19.8452 28.8575C19.7936 28.9031 19.7316 28.9234 19.6644 28.9234C19.5869 28.9234 19.5095 28.8879 19.4527 28.8219L18.337 27.3873L17.7999 27.9247V28.6445C17.7999 28.7965 17.6759 28.9234 17.5159 28.9234C17.3559 28.9232 17.2319 28.7965 17.2319 28.6443V28.6443Z" fill="#690589"/>
<path d="M24.0337 25.6536V28.6444C24.0337 28.7965 23.8993 28.9233 23.7445 28.9233C23.5844 28.9233 23.4604 28.7966 23.4604 28.6444V26.5103L22.7168 27.5242C22.66 27.6002 22.5773 27.6408 22.4843 27.6408H22.4791H22.4739C22.381 27.6408 22.2931 27.6002 22.2365 27.5242L21.4979 26.5103V28.6444C21.4979 28.7965 21.3687 28.9233 21.2087 28.9233C21.0538 28.9233 20.9246 28.7966 20.9246 28.6444V25.6536C20.9246 25.5016 21.0538 25.3749 21.2087 25.3749H21.2242C21.3068 25.3749 21.3998 25.4154 21.4514 25.4915L22.4791 26.8906L23.5069 25.4915C23.5639 25.4154 23.6464 25.3749 23.7393 25.3749H23.7445C23.8995 25.38 24.0337 25.5016 24.0337 25.6536V25.6536Z" fill="#690589"/>
<path d="M25.2834 28.6444V25.6536C25.2834 25.4965 25.4075 25.3749 25.5676 25.3749C25.7276 25.3749 25.8568 25.4966 25.8568 25.6536V26.8702H27.1944V25.6536C27.1944 25.4965 27.3185 25.3749 27.4786 25.3749C27.6386 25.3749 27.7678 25.4966 27.7678 25.6536V28.6444C27.7678 28.8016 27.6386 28.9233 27.4786 28.9233C27.3185 28.9233 27.1944 28.8016 27.1944 28.6444V27.4279H25.8568V28.6444C25.8568 28.8016 25.7276 28.9233 25.5676 28.9233C25.4073 28.9233 25.2834 28.8016 25.2834 28.6444Z" fill="#690589"/>
</g>
<defs>
<filter id="filter0_d" x="0" y="0.842163" width="45" height="44.3158" filterUnits="userSpaceOnUse" color-interpolation-filters="sRGB">
<feFlood flood-opacity="0" result="BackgroundImageFix"/>
<feColorMatrix in="SourceAlpha" type="matrix" values="0 0 0 0 0 0 0 0 0 0 0 0 0 0 0 0 0 0 127 0"/>
<feOffset dy="4"/>
<feGaussianBlur stdDeviation="2"/>
<feColorMatrix type="matrix" values="0 0 0 0 0 0 0 0 0 0 0 0 0 0 0 0 0 0 0.25 0"/>
<feBlend mode="normal" in2="BackgroundImageFix" result="effect1_dropShadow"/>
<feBlend mode="normal" in="SourceGraphic" in2="effect1_dropShadow" result="shape"/>
</filter>
</defs>
</svg>
