<svg width="35" height="39" viewBox="0 0 35 39" fill="none" xmlns="http://www.w3.org/2000/svg">
<g clip-path="url(#clip0)">
<path d="M6.73975 33.3452L7.26153 36.1025L20.303 33.3452H13.7108H6.73975Z" fill="#FF9811"/>
<path d="M26.7529 31.9816L32.8393 30.6948L27.7235 3.65784L17.72 5.77283H26.7529V31.9816Z" fill="#FF9811"/>
<path d="M13.7108 14.5041C11.5533 14.5041 9.79808 12.6488 9.79808 10.3682V8.53007H12.4065V10.3682C12.4065 11.1284 12.9916 11.7469 13.7108 11.7469V5.77283H12.4065H9.79808H0.668457V33.3453H6.73974H13.7108V14.5041Z" fill="#FFE98F"/>
<path d="M26.753 31.9816V5.77283H17.7201H17.6234V10.3682C17.6234 12.6488 15.8682 14.5041 13.7107 14.5041V33.3453H20.303H26.753V31.9816Z" fill="#FFDA44"/>
<path d="M15.0149 10.3682V5.77283H13.7107V11.7469C14.4298 11.7469 15.0149 11.1284 15.0149 10.3682Z" fill="#FFDA44"/>
<path d="M12.4066 4.85376C12.4066 4.09359 12.9916 3.47514 13.7108 3.47514C14.4299 3.47514 15.015 4.09359 15.015 4.85376V5.77284V10.3683C15.015 11.1284 14.4299 11.7469 13.7108 11.7469C12.9916 11.7469 12.4066 11.1284 12.4066 10.3683V8.53009H9.7981V10.3683C9.7981 12.6489 11.5533 14.5041 13.7108 14.5041C15.8682 14.5041 17.6235 12.6489 17.6235 10.3683V5.77284V4.85376C17.6235 2.57325 15.8682 0.717896 13.7108 0.717896C11.5533 0.717896 9.7981 2.57325 9.7981 4.85376V5.77284H12.4066V4.85376Z" fill="#565659"/>
</g>
<defs>
<clipPath id="clip0">
<rect width="34.3158" height="37.7436" fill="white" transform="translate(0 0.717896)"/>
</clipPath>
</defs>
</svg>
