<svg width="37" height="36" viewBox="0 0 37 36" fill="none" xmlns="http://www.w3.org/2000/svg">
<path d="M1.15625 5.0625V26.4375H24.2812C24.2812 24.885 25.5763 23.625 27.1719 23.625C28.7675 23.625 30.0625 24.885 30.0625 26.4375H32.375V5.0625H1.15625Z" fill="#E6E9ED"/>
<path d="M3.46875 19.6875H5.78125V24.1875H3.46875V19.6875Z" fill="#FCD770"/>
<path d="M8.09375 20.8125H10.4062V24.1875H8.09375V20.8125Z" fill="#FCD770"/>
<path d="M12.7188 16.3125H15.0312V24.1875H12.7188V16.3125Z" fill="#FCD770"/>
<path d="M19.6562 18.5625V22.23C19.2978 22.8375 19.0088 23.4956 18.8122 24.1875H17.3438V18.5625H19.6562Z" fill="#FCD770"/>
<path d="M27.1719 21.375C24.2986 21.375 21.9688 23.6419 21.9688 26.4375C21.9688 27.36 22.2231 28.2262 22.6683 28.9688C23.5644 30.4819 25.2467 31.5 27.1719 31.5C29.097 31.5 30.7794 30.4819 31.6755 28.9688C32.1206 28.2262 32.375 27.36 32.375 26.4375C32.375 23.6419 30.0452 21.375 27.1719 21.375ZM27.1719 29.25C25.5763 29.25 24.2812 27.99 24.2812 26.4375C24.2812 24.885 25.5763 23.625 27.1719 23.625C28.7675 23.625 30.0625 24.885 30.0625 26.4375C30.0625 27.99 28.7675 29.25 27.1719 29.25Z" fill="#CCD1D9"/>
<path d="M31.6753 28.9688L34.6816 30.6562C33.1784 33.1763 30.3803 34.875 27.1717 34.875C23.9631 34.875 21.165 33.1763 19.6619 30.6562L22.6681 28.9688C23.5642 30.4819 25.2466 31.5 27.1717 31.5C29.0969 31.5 30.7792 30.4819 31.6753 28.9688Z" fill="#FCD770"/>
<path d="M35.8438 26.4375C35.8438 27.9731 35.4217 29.4187 34.6817 30.6562L31.6755 28.9688C32.1206 28.2262 32.375 27.36 32.375 26.4375C32.375 23.6419 30.0452 21.375 27.1719 21.375V18C29.1259 18 30.9297 18.63 32.375 19.6875C34.4794 21.2288 35.8438 23.6812 35.8438 26.4375Z" fill="#FF826E"/>
<path d="M27.1719 18V21.375C24.2986 21.375 21.9688 23.6419 21.9688 26.4375C21.9688 27.36 22.2231 28.2262 22.6683 28.9688L19.662 30.6562C18.922 29.4187 18.5 27.9731 18.5 26.4375C18.5 25.6613 18.6098 24.9019 18.8122 24.1875C19.0088 23.4956 19.2978 22.8375 19.6562 22.23C21.1536 19.6988 23.9633 18 27.1719 18Z" fill="#B4DD7F"/>
<path d="M17.0027 12.7069C17.2166 12.9094 17.3438 13.1906 17.3438 13.5C17.3438 14.1188 16.8234 14.625 16.1875 14.625C15.5516 14.625 15.0312 14.1188 15.0312 13.5C15.0312 12.8812 15.5516 12.375 16.1875 12.375C16.5055 12.375 16.7945 12.4988 17.0027 12.7069Z" fill="#FF826E"/>
<path d="M22.2058 9.23062C21.9977 9.43875 21.7086 9.5625 21.3906 9.5625C21.0727 9.5625 20.7836 9.43875 20.5755 9.23062C20.3616 9.02812 20.2344 8.74688 20.2344 8.4375C20.2344 7.81875 20.7547 7.3125 21.3906 7.3125C22.0266 7.3125 22.5469 7.81875 22.5469 8.4375C22.5469 8.74688 22.4197 9.02812 22.2058 9.23062Z" fill="#FF826E"/>
<path d="M25.6745 11.0194C25.8884 11.2219 26.0156 11.5031 26.0156 11.8125C26.0156 12.4313 25.4953 12.9375 24.8594 12.9375C24.2234 12.9375 23.7031 12.4313 23.7031 11.8125C23.7031 11.5031 23.8303 11.2219 24.0442 11.0194C24.2523 10.8113 24.5414 10.6875 24.8594 10.6875C25.1773 10.6875 25.4664 10.8113 25.6745 11.0194Z" fill="#FF826E"/>
<path d="M32.375 1.125C34.2886 1.125 35.8438 2.63813 35.8438 4.5C35.8438 6.36187 34.2886 7.875 32.375 7.875C31.4153 7.875 30.5481 7.49812 29.9237 6.885C29.4266 6.40125 29.0797 5.77125 28.9583 5.0625C28.9236 4.8825 28.9062 4.69125 28.9062 4.5C28.9062 2.63813 30.4614 1.125 32.375 1.125V1.125Z" fill="#FF826E"/>
<path d="M32.9531 19.4231V8.3925C34.9112 8.118 36.4219 6.47944 36.4219 4.5C36.4219 2.32931 34.6066 0.5625 32.375 0.5625C30.1434 0.5625 28.3281 2.32931 28.3281 4.5H0.578125V27H17.9514C18.252 31.7002 22.2671 35.4375 27.1719 35.4375C32.2721 35.4375 36.4219 31.3999 36.4219 26.4375C36.4219 23.6031 35.065 21.0741 32.9531 19.4231ZM32.375 1.6875C33.9689 1.6875 35.2656 2.94919 35.2656 4.5C35.2656 6.05081 33.9689 7.3125 32.375 7.3125C30.7811 7.3125 29.4844 6.05081 29.4844 4.5C29.4844 2.94919 30.7811 1.6875 32.375 1.6875ZM1.73438 5.625H28.4987C28.6368 6.07387 28.8565 6.48731 29.1387 6.85406L25.6028 10.2943C25.3762 10.1886 25.1265 10.125 24.8594 10.125C24.5923 10.125 24.3425 10.1886 24.1165 10.2943L22.9516 9.16087C23.0597 8.94037 23.125 8.69738 23.125 8.4375C23.125 7.50712 22.3468 6.75 21.3906 6.75C20.4344 6.75 19.6562 7.50712 19.6562 8.4375C19.6562 8.69738 19.7216 8.94037 19.8303 9.16031L16.931 11.9812C16.7043 11.8761 16.4546 11.8125 16.1875 11.8125C15.2313 11.8125 14.4531 12.5696 14.4531 13.5C14.4531 14.4304 15.2313 15.1875 16.1875 15.1875C17.1437 15.1875 17.9219 14.4304 17.9219 13.5C17.9219 13.2401 17.8565 12.9971 17.7479 12.7772L20.6472 9.95625C20.8738 10.0614 21.1235 10.125 21.3906 10.125C21.6577 10.125 21.9075 10.0614 22.1335 9.95569L23.2984 11.0891C23.1903 11.3096 23.125 11.5526 23.125 11.8125C23.125 12.7429 23.9032 13.5 24.8594 13.5C25.8156 13.5 26.5938 12.7429 26.5938 11.8125C26.5938 11.5526 26.5284 11.3096 26.4197 11.0897L29.9561 7.64944C30.4851 8.03531 31.113 8.29687 31.7969 8.39306V18.6559C30.4342 17.8858 28.8577 17.4375 27.1719 17.4375C24.4084 17.4375 21.9306 18.6289 20.2344 20.5048V18H16.7656V24.75H18.0907C18.019 25.1173 17.9756 25.4936 17.9514 25.875H1.73438V5.625ZM24.8594 11.25C25.1779 11.25 25.4375 11.502 25.4375 11.8125C25.4375 12.123 25.1779 12.375 24.8594 12.375C24.5408 12.375 24.2812 12.123 24.2812 11.8125C24.2812 11.502 24.5408 11.25 24.8594 11.25ZM20.8125 8.4375C20.8125 8.127 21.0721 7.875 21.3906 7.875C21.7092 7.875 21.9688 8.127 21.9688 8.4375C21.9688 8.748 21.7092 9 21.3906 9C21.0721 9 20.8125 8.748 20.8125 8.4375ZM16.7656 13.5C16.7656 13.8105 16.506 14.0625 16.1875 14.0625C15.869 14.0625 15.6094 13.8105 15.6094 13.5C15.6094 13.1895 15.869 12.9375 16.1875 12.9375C16.506 12.9375 16.7656 13.1895 16.7656 13.5ZM27.1719 30.9375C24.6218 30.9375 22.5469 28.9187 22.5469 26.4375C22.5469 23.9563 24.6218 21.9375 27.1719 21.9375C29.722 21.9375 31.7969 23.9563 31.7969 26.4375C31.7969 28.9187 29.722 30.9375 27.1719 30.9375ZM19.0781 22.0899C18.8012 22.5759 18.5723 23.0895 18.3907 23.625H17.9219V19.125H19.0781V22.0899ZM26.5938 18.5912V20.8412C23.6765 21.1247 21.3906 23.526 21.3906 26.4375C21.3906 27.2604 21.5779 28.0406 21.9057 28.746L19.9002 29.8727C19.3788 28.8332 19.0781 27.6699 19.0781 26.4375C19.0781 22.2851 22.4006 18.8814 26.5938 18.5912ZM27.1719 34.3125C24.3888 34.3125 21.9294 32.9383 20.4726 30.8503L22.4862 29.7191C23.5372 31.1355 25.2433 32.0625 27.1719 32.0625C29.1005 32.0625 30.8065 31.1355 31.8576 29.7191L33.8712 30.8503C32.4143 32.9383 29.955 34.3125 27.1719 34.3125V34.3125ZM34.4435 29.8727L32.438 28.746C32.7658 28.0406 32.9531 27.2604 32.9531 26.4375C32.9531 23.526 30.6672 21.1241 27.75 20.8412V18.5912C31.9431 18.8814 35.2656 22.2851 35.2656 26.4375C35.2656 27.6699 34.965 28.8332 34.4435 29.8727Z" fill="black"/>
<path d="M27.1719 23.0625C25.2589 23.0625 23.7031 24.5762 23.7031 26.4375C23.7031 28.2988 25.2589 29.8125 27.1719 29.8125C29.0849 29.8125 30.6406 28.2988 30.6406 26.4375C30.6406 24.5762 29.0849 23.0625 27.1719 23.0625ZM27.1719 28.6875C25.8965 28.6875 24.8594 27.6784 24.8594 26.4375C24.8594 25.1966 25.8965 24.1875 27.1719 24.1875C28.4472 24.1875 29.4844 25.1966 29.4844 26.4375C29.4844 27.6784 28.4472 28.6875 27.1719 28.6875Z" fill="black"/>
<path d="M2.89062 6.75H4.04688V7.875H2.89062V6.75Z" fill="black"/>
<path d="M5.20312 6.75H13.2969V7.875H5.20312V6.75Z" fill="black"/>
<path d="M2.89062 9H4.04688V10.125H2.89062V9Z" fill="black"/>
<path d="M5.20312 9H13.2969V10.125H5.20312V9Z" fill="black"/>
<path d="M2.89062 11.25H4.04688V12.375H2.89062V11.25Z" fill="black"/>
<path d="M5.20312 11.25H13.2969V12.375H5.20312V11.25Z" fill="black"/>
<path d="M2.89062 13.5H4.04688V14.625H2.89062V13.5Z" fill="black"/>
<path d="M5.20312 13.5H13.2969V14.625H5.20312V13.5Z" fill="black"/>
<path d="M2.89062 24.75H6.35938V19.125H2.89062V24.75ZM4.04688 20.25H5.20312V23.625H4.04688V20.25Z" fill="black"/>
<path d="M7.51562 24.75H10.9844V20.25H7.51562V24.75ZM8.67188 21.375H9.82812V23.625H8.67188V21.375Z" fill="black"/>
<path d="M12.1406 24.75H15.6094V15.75H12.1406V24.75ZM13.2969 16.875H14.4531V23.625H13.2969V16.875Z" fill="black"/>
</svg>
