<svg width="98" height="76" viewBox="0 0 98 76" fill="none" xmlns="http://www.w3.org/2000/svg">
<g clip-path="url(#clip0)">
<path d="M49 0V28.5476C49 28.5476 62.5172 16.1163 62.5172 10.381C62.5172 4.64748 56.4657 0 49 0Z" fill="#FF4764"/>
<path d="M35.4827 10.381C35.4827 16.1163 48.9999 28.5476 48.9999 28.5476V0C41.5342 0 35.4827 4.64748 35.4827 10.381Z" fill="#FF3051"/>
<path d="M35.4827 33.7382L0 75.262H12.519L40.8207 33.7382H35.4827Z" fill="#FFCD00"/>
<path d="M57.1792 33.7382L85.4809 75.262H97.9999L62.5171 33.7382H57.1792Z" fill="#FFCD00"/>
<path d="M57.1794 33.7382H40.8208L12.519 75.262H85.4811L57.1794 33.7382Z" fill="#58595B"/>
<path d="M47.3103 37.631H50.6896V40.2262H47.3103V37.631Z" fill="#A7A9AC"/>
<path d="M47.3103 33.7382H50.6896V35.0358H47.3103V33.7382Z" fill="#A7A9AC"/>
<path d="M47.3103 42.8215H50.6896V46.7144H47.3103V42.8215Z" fill="#A7A9AC"/>
<path d="M47.3103 49.3097H50.6896V54.5002H47.3103V49.3097Z" fill="#A7A9AC"/>
<path d="M47.3103 58.3929H50.6896V64.881H47.3103V58.3929Z" fill="#A7A9AC"/>
<path d="M47.3103 68.7739H50.6896V75.262H47.3103V68.7739Z" fill="#A7A9AC"/>
<path d="M43.9312 9.08329C43.9312 11.2331 46.2008 12.9761 49.0001 12.9761V5.19043C46.2008 5.19043 43.9312 6.93347 43.9312 9.08329Z" fill="#F1F2F2"/>
<path d="M49 5.19043V12.9761C51.7993 12.9761 54.069 11.2331 54.069 9.08329C54.069 6.93347 51.7993 5.19043 49 5.19043Z" fill="#F9F9F9"/>
</g>
<defs>
<clipPath id="clip0">
<rect width="98" height="75.2619" fill="white"/>
</clipPath>
</defs>
</svg>
