<svg width="37" height="36" viewBox="0 0 37 36" fill="none" xmlns="http://www.w3.org/2000/svg">
<path d="M33.4771 24.9838H3.52287C3.01976 24.9838 2.61182 24.5869 2.61182 24.0974V20.7529H34.3881V24.0974C34.3881 24.5869 33.9803 24.9838 33.4771 24.9838Z" fill="#76C9D2"/>
<path opacity="0.2" d="M33.4771 24.9838H3.52287C3.01976 24.9838 2.61182 24.5869 2.61182 24.0974V20.7529H34.3881V24.0974C34.3881 24.5869 33.9803 24.9838 33.4771 24.9838Z" fill="black"/>
<path d="M6.22587 27.7483H5.0905C4.81293 27.7483 4.58789 27.5293 4.58789 27.2592V24.9838H6.72848V27.2592C6.72848 27.5293 6.50344 27.7483 6.22587 27.7483Z" fill="#9B7E73"/>
<path d="M30.774 27.7483H31.9094C32.187 27.7483 32.412 27.5293 32.412 27.2592V24.9838H30.2715V27.2592C30.2714 27.5293 30.4964 27.7483 30.774 27.7483Z" fill="#9B7E73"/>
<path d="M6.68259 8.25171H16.1074C17.4289 8.25171 18.5002 9.29402 18.5002 10.5798V20.7529H4.28979V10.5798C4.28979 9.29402 5.36106 8.25171 6.68259 8.25171Z" fill="#76C9D2"/>
<path opacity="0.1" d="M6.67356 8.25171H16.0984C17.4199 8.25171 18.4912 9.29402 18.4912 10.5798V20.7529H4.28076V10.5798C4.28076 9.29402 5.35203 8.25171 6.67356 8.25171Z" fill="black"/>
<path d="M30.3176 8.25171H20.8928C19.5713 8.25171 18.5 9.29402 18.5 10.5798V20.7529H32.7104V10.5798C32.7104 9.29402 31.6392 8.25171 30.3176 8.25171Z" fill="#76C9D2"/>
<path opacity="0.1" d="M30.3176 8.25171H20.8928C19.5713 8.25171 18.5 9.29402 18.5 10.5798V20.7529H32.7104V10.5798C32.7104 9.29402 31.6392 8.25171 30.3176 8.25171Z" fill="black"/>
<path d="M5.96727 20.7528H2.61182V15.3431C2.61182 14.9379 2.94937 14.6095 3.36577 14.6095H5.21332C5.62972 14.6095 5.96727 14.9379 5.96727 15.3431V20.7528V20.7528Z" fill="#76C9D2"/>
<path opacity="0.3" d="M5.95824 20.7528H2.60278V15.3431C2.60278 14.9379 2.94034 14.6095 3.35673 14.6095H5.20429C5.62068 14.6095 5.95824 14.9379 5.95824 15.3431V20.7528V20.7528Z" fill="white"/>
<path d="M31.0327 20.7528H34.3882V15.3431C34.3882 14.9379 34.0506 14.6095 33.6342 14.6095H31.7867C31.3703 14.6095 31.0327 14.9379 31.0327 15.3431V20.7528Z" fill="#76C9D2"/>
<path opacity="0.3" d="M31.0327 20.7528H34.3882V15.3431C34.3882 14.9379 34.0506 14.6095 33.6342 14.6095H31.7867C31.3703 14.6095 31.0327 14.9379 31.0327 15.3431V20.7528Z" fill="white"/>
<path d="M17.4715 22.6488H1.57055C1.00247 22.6488 0.541992 22.2008 0.541992 21.6481V19.8578C0.541992 19.3051 1.00254 18.8571 1.57055 18.8571H17.4714C18.0395 18.8571 18.5 19.3051 18.5 19.8578V21.6481C18.5001 22.2008 18.0396 22.6488 17.4715 22.6488Z" fill="#76C9D2"/>
<path d="M35.4295 22.6488H19.5286C18.9605 22.6488 18.5 22.2008 18.5 21.6481V19.8578C18.5 19.3051 18.9605 18.8571 19.5286 18.8571H35.4294C35.9975 18.8571 36.458 19.3051 36.458 19.8578V21.6481C36.4581 22.2008 35.9976 22.6488 35.4295 22.6488Z" fill="#76C9D2"/>
<g opacity="0.1">
<path opacity="0.1" d="M13.682 17.2551C13.5433 17.2551 13.4046 17.2037 13.2987 17.1006L8.72418 12.6498C8.51251 12.4438 8.51251 12.1099 8.72418 11.904C8.93592 11.698 9.27904 11.698 9.4907 11.904L14.0652 16.3548C14.2769 16.5608 14.2769 16.8947 14.0652 17.1006C13.9594 17.2037 13.8207 17.2551 13.682 17.2551Z" fill="black"/>
<path opacity="0.1" d="M9.10748 17.2551C8.9688 17.2551 8.83005 17.2037 8.72418 17.1006C8.51251 16.8947 8.51251 16.5608 8.72418 16.3548L13.2987 11.904C13.5104 11.698 13.8535 11.698 14.0652 11.904C14.2769 12.1099 14.2769 12.4438 14.0652 12.6498L9.4907 17.1006C9.38491 17.2037 9.24616 17.2551 9.10748 17.2551Z" fill="black"/>
</g>
<path d="M11.3948 15.3276C11.8631 15.3276 12.2427 14.9582 12.2427 14.5026C12.2427 14.047 11.8631 13.6776 11.3948 13.6776C10.9265 13.6776 10.5469 14.047 10.5469 14.5026C10.5469 14.9582 10.9265 15.3276 11.3948 15.3276Z" fill="white"/>
<g opacity="0.1">
<path opacity="0.1" d="M23.3182 17.2551C23.1795 17.2551 23.0407 17.2037 22.9349 17.1006C22.7232 16.8947 22.7232 16.5608 22.9349 16.3548L27.5094 11.904C27.7211 11.698 28.0642 11.698 28.2759 11.904C28.4876 12.1099 28.4876 12.4438 28.2759 12.6498L23.7014 17.1006C23.5956 17.2037 23.4569 17.2551 23.3182 17.2551Z" fill="black"/>
<path opacity="0.1" d="M27.8927 17.2551C27.754 17.2551 27.6153 17.2037 27.5094 17.1006L22.9349 12.6498C22.7232 12.4438 22.7232 12.1099 22.9349 11.904C23.1466 11.698 23.4897 11.698 23.7014 11.904L28.2759 16.3548C28.4876 16.5608 28.4876 16.8947 28.2759 17.1006C28.1701 17.2037 28.0314 17.2551 27.8927 17.2551Z" fill="black"/>
</g>
<path d="M25.6055 15.3276C26.0737 15.3276 26.4534 14.9582 26.4534 14.5026C26.4534 14.047 26.0737 13.6776 25.6055 13.6776C25.1372 13.6776 24.7576 14.047 24.7576 14.5026C24.7576 14.9582 25.1372 15.3276 25.6055 15.3276Z" fill="white"/>
<path opacity="0.2" d="M6.72872 24.9835H4.58813V26.041H6.72872V24.9835Z" fill="black"/>
<path opacity="0.2" d="M32.4118 24.9835H30.2712V26.041H32.4118V24.9835Z" fill="black"/>
<path d="M35.4296 18.3297H34.9122V15.3432C34.9122 14.648 34.3308 14.0823 33.6162 14.0823H33.2435V10.5799C33.2435 9.00537 31.9269 7.72449 30.3088 7.72449H29.6774C29.378 7.72449 29.1354 7.9606 29.1354 8.25183C29.1354 8.54307 29.378 8.77918 29.6774 8.77918H30.3088C31.3293 8.77918 32.1595 9.587 32.1595 10.5799V14.0823H31.7687C31.0541 14.0823 30.4727 14.648 30.4727 15.3432V18.3297H19.5286C19.3555 18.3297 19.1889 18.3575 19.033 18.4081V14.9611C19.033 14.6699 18.7904 14.4338 18.491 14.4338C18.1916 14.4338 17.949 14.6699 17.949 14.9611V18.4021C17.7984 18.3552 17.6379 18.3296 17.4715 18.3296H6.50935V15.3432C6.50935 14.6479 5.92797 14.0822 5.21341 14.0822H4.82259V10.5799C4.82259 9.58693 5.65278 8.77918 6.67332 8.77918H16.0982C17.1188 8.77918 17.949 9.587 17.949 10.5799V12.5598C17.949 12.8511 18.1916 13.0872 18.491 13.0872C18.7904 13.0872 19.033 12.8511 19.033 12.5598V10.5799C19.033 9.58693 19.8632 8.77918 20.8838 8.77918H26.8057C27.1051 8.77918 27.3477 8.54307 27.3477 8.25183C27.3477 7.9606 27.1051 7.72449 26.8057 7.72449H20.8838C19.8971 7.72449 19.0233 8.20114 18.491 8.92972C17.9587 8.20114 17.0848 7.72449 16.0982 7.72449H6.6734C5.05514 7.72449 3.73868 9.00544 3.73868 10.5799V14.0823H3.36593C2.65136 14.0823 2.06998 14.648 2.06998 15.3432V18.3297H1.57063C0.704593 18.3297 0 19.0152 0 19.8578V21.648C0 22.4906 0.704593 23.1761 1.57055 23.1761H2.06991V24.0973C2.06991 24.8769 2.72175 25.511 3.52289 25.511H4.04595V27.2591C4.04595 27.8195 4.51452 28.2755 5.09056 28.2755H6.22592C6.80196 28.2755 7.27053 27.8196 7.27053 27.2591V25.511H8.33688C8.63628 25.511 8.87888 25.2749 8.87888 24.9837C8.87888 24.6924 8.63628 24.4563 8.33688 24.4563H3.52296C3.31953 24.4563 3.15397 24.2953 3.15397 24.0973V23.1761H17.4715C17.8647 23.1761 18.2243 23.0345 18.5001 22.8014C18.7758 23.0345 19.1355 23.1761 19.5286 23.1761H33.8462V24.0973C33.8462 24.2953 33.6806 24.4563 33.4772 24.4563H11.0528C10.7534 24.4563 10.5108 24.6924 10.5108 24.9837C10.5108 25.2749 10.7534 25.511 11.0528 25.511H29.7115V27.2591C29.7115 27.8195 30.18 28.2755 30.756 28.2755H31.8914C32.4674 28.2755 32.936 27.8196 32.936 27.2591V25.511H33.4771C34.2783 25.511 34.9301 24.8768 34.9301 24.0973V23.1761H35.4294C36.2954 23.1761 37 22.4906 37 21.648V19.8578C37.0001 19.0152 36.2956 18.3297 35.4296 18.3297ZM5.13001 25.5111H6.18661V27.2209H5.13001V25.5111ZM3.15397 15.3432C3.15397 15.2295 3.249 15.1369 3.36593 15.1369H5.21348C5.33033 15.1369 5.42544 15.2295 5.42544 15.3432V18.3296H3.15397V15.3432ZM17.9581 21.648C17.9581 21.909 17.7398 22.1214 17.4715 22.1214H1.57055C1.30223 22.1214 1.08399 21.909 1.08399 21.648V19.8578C1.08399 19.5967 1.3023 19.3844 1.57055 19.3844H17.4714C17.7398 19.3844 17.958 19.5967 17.958 19.8578L17.9581 21.648ZM31.8521 27.2209H30.7955V25.5111H31.8521V27.2209ZM31.5567 15.3432C31.5567 15.2295 31.6517 15.1369 31.7687 15.1369H33.6162C33.7331 15.1369 33.8282 15.2295 33.8282 15.3432V18.3296H31.5567V15.3432ZM35.9162 21.648C35.9162 21.909 35.6978 22.1214 35.4296 22.1214H19.5286C19.2603 22.1214 19.0421 21.909 19.0421 21.648V19.8578C19.0421 19.5967 19.2604 19.3844 19.5286 19.3844H35.4295C35.6978 19.3844 35.9161 19.5967 35.9161 19.8578V21.648H35.9162Z" fill="black"/>
</svg>
