<svg width="37" height="26" viewBox="0 0 37 26" fill="none" xmlns="http://www.w3.org/2000/svg">
<path d="M26.5167 16.1633C26.3532 16.1633 26.1963 16.106 26.0807 16.0041C25.965 15.9022 25.9 15.7639 25.9 15.6198V10.7285C25.9 10.5844 25.965 10.4461 26.0807 10.3442C26.1963 10.2423 26.3532 10.185 26.5167 10.185H30.8334L28.7305 8.33176C28.6157 8.23018 28.4792 8.14957 28.329 8.09455C28.1787 8.03953 28.0176 8.01117 27.8549 8.01111H5.55005V21.0546C5.55102 21.3426 5.68128 21.6186 5.91236 21.8222C6.14345 22.0259 6.45658 22.1407 6.78338 22.1415H35.15C35.4768 22.1407 35.79 22.0259 36.0211 21.8222C36.2521 21.6186 36.3824 21.3426 36.3834 21.0546V16.1633H26.5167Z" fill="#3D9AE2"/>
<path d="M15.4167 8.01118C15.4167 9.74086 14.6371 11.3997 13.2493 12.6228C11.8615 13.8458 9.9793 14.5329 8.0167 14.5329C7.17607 14.5344 6.34151 14.4076 5.55003 14.1579C4.27087 13.7593 3.14067 13.0585 2.28297 12.132C1.42527 11.2055 0.873088 10.0891 0.686793 8.90466C0.500499 7.72026 0.68726 6.51351 1.22666 5.41634C1.76606 4.31917 2.63734 3.37381 3.74524 2.68361C4.85315 1.9934 6.15504 1.58492 7.50859 1.50282C8.86214 1.42072 10.2153 1.66815 11.42 2.21808C12.6248 2.768 13.6348 3.59925 14.3397 4.62094C15.0445 5.64264 15.4171 6.81546 15.4167 8.01118V8.01118Z" fill="#FFD422"/>
<path d="M11.7167 6.9242C11.7167 9.09811 8.01665 12.359 8.01665 12.359C8.01665 12.359 4.31665 9.09811 4.31665 6.9242C4.31665 6.05936 4.70647 5.22995 5.40036 4.61842C6.09424 4.00689 7.03535 3.66333 8.01665 3.66333C8.99795 3.66333 9.93906 4.00689 10.6329 4.61842C11.3268 5.22995 11.7167 6.05936 11.7167 6.9242V6.9242Z" fill="#FF6243"/>
<path d="M8.01654 8.01132C8.69769 8.01132 9.24987 7.52467 9.24987 6.92436C9.24987 6.32405 8.69769 5.8374 8.01654 5.8374C7.33539 5.8374 6.7832 6.32405 6.7832 6.92436C6.7832 7.52467 7.33539 8.01132 8.01654 8.01132Z" fill="#FFA733"/>
<path d="M36.3832 15.0765V16.1634H26.5166C26.353 16.1634 26.1962 16.1062 26.0805 16.0043C25.9649 15.9023 25.8999 15.7641 25.8999 15.62V10.7287C25.8999 10.5845 25.9649 10.4463 26.0805 10.3444C26.1962 10.2424 26.353 10.1852 26.5166 10.1852H30.8332L36.3832 15.0765Z" fill="#E6E7E8"/>
<path d="M5.55005 17.2502H36.3834V21.0546C36.3834 21.3429 36.2534 21.6193 36.0221 21.8232C35.7909 22.027 35.4771 22.1416 35.15 22.1416H6.78338C6.45628 22.1416 6.14258 22.027 5.91128 21.8232C5.67999 21.6193 5.55005 21.3429 5.55005 21.0546V17.2502Z" fill="#78B9EB"/>
<path d="M12.3333 25.4026C14.3768 25.4026 16.0333 23.9427 16.0333 22.1417C16.0333 20.3408 14.3768 18.8809 12.3333 18.8809C10.2898 18.8809 8.6333 20.3408 8.6333 22.1417C8.6333 23.9427 10.2898 25.4026 12.3333 25.4026Z" fill="#787680"/>
<path d="M29.5999 25.4026C31.6434 25.4026 33.2999 23.9427 33.2999 22.1417C33.2999 20.3408 31.6434 18.8809 29.5999 18.8809C27.5564 18.8809 25.8999 20.3408 25.8999 22.1417C25.8999 23.9427 27.5564 25.4026 29.5999 25.4026Z" fill="#787680"/>
<path d="M36.8193 14.6922L29.164 7.9455C28.9926 7.79349 28.7887 7.67299 28.5641 7.59098C28.3395 7.50898 28.0986 7.4671 27.8555 7.46778H17.2667V8.55474H20.35V16.7069H21.5833V8.55474H27.8555C27.9365 8.55468 28.0168 8.56872 28.0917 8.59604C28.1667 8.62337 28.2347 8.66344 28.2921 8.71398L29.3447 9.6417H26.5167C26.1896 9.6417 25.8759 9.75621 25.6446 9.96006C25.4133 10.1639 25.2833 10.4404 25.2833 10.7287V15.62C25.2833 15.9082 25.4133 16.1847 25.6446 16.3886C25.8759 16.5924 26.1896 16.7069 26.5167 16.7069H35.7667V21.0547C35.7667 21.1989 35.7017 21.3371 35.5861 21.439C35.4704 21.541 35.3136 21.5982 35.15 21.5982H33.8673C33.7199 20.6934 33.2072 19.8658 32.4234 19.2671C31.6396 18.6684 30.6372 18.3389 29.6 18.3389C28.5628 18.3389 27.5604 18.6684 26.7766 19.2671C25.9928 19.8658 25.4801 20.6934 25.3327 21.5982H16.6007C16.4532 20.6934 15.9406 19.8658 15.1568 19.2671C14.373 18.6684 13.3705 18.3389 12.3333 18.3389C11.2961 18.3389 10.2937 18.6684 9.50989 19.2671C8.72608 19.8658 8.21345 20.6934 8.066 21.5982H6.78333C6.61978 21.5982 6.46293 21.541 6.34728 21.439C6.23164 21.3371 6.16667 21.1989 6.16667 21.0547V16.1634H4.93333V21.0547C4.93333 21.4872 5.12824 21.9019 5.47519 22.2076C5.82213 22.5134 6.29268 22.6852 6.78333 22.6852H8.066C8.2006 23.5116 8.64084 24.2757 9.31845 24.8591H0V25.946H29.6C30.6369 25.9443 31.6386 25.6139 32.422 25.0153C33.2054 24.4166 33.7184 23.5896 33.8673 22.6852H35.15C35.6407 22.6852 36.1112 22.5134 36.4581 22.2076C36.8051 21.9019 37 21.4872 37 21.0547V15.0765C37 14.9324 36.935 14.7941 36.8193 14.6922V14.6922ZM9.25 22.1417C9.25 21.6042 9.43083 21.0789 9.76964 20.632C10.1084 20.1851 10.59 19.8368 11.1534 19.6312C11.7168 19.4255 12.3368 19.3717 12.9349 19.4765C13.533 19.5814 14.0824 19.8402 14.5136 20.2202C14.9448 20.6002 15.2385 21.0844 15.3574 21.6116C15.4764 22.1387 15.4153 22.6851 15.182 23.1816C14.9486 23.6781 14.5534 24.1025 14.0463 24.4011C13.5393 24.6997 12.9432 24.8591 12.3333 24.8591C11.5159 24.8582 10.7322 24.5717 10.1542 24.0622C9.57614 23.5528 9.25098 22.8621 9.25 22.1417V22.1417ZM15.3482 24.8591C16.0258 24.2757 16.4661 23.5116 16.6007 22.6852H25.3327C25.4673 23.5116 25.9075 24.2757 26.5851 24.8591H15.3482ZM29.6 24.8591C28.9902 24.8591 28.394 24.6997 27.887 24.4011C27.3799 24.1025 26.9847 23.6781 26.7514 23.1816C26.518 22.6851 26.4569 22.1387 26.5759 21.6116C26.6949 21.0844 26.9885 20.6002 27.4198 20.2202C27.851 19.8402 28.4004 19.5814 28.9985 19.4765C29.5966 19.3717 30.2165 19.4255 30.7799 19.6312C31.3433 19.8368 31.8249 20.1851 32.1637 20.632C32.5025 21.0789 32.6833 21.6042 32.6833 22.1417C32.6824 22.8621 32.3572 23.5528 31.7792 24.0622C31.2011 24.5717 30.4175 24.8582 29.6 24.8591ZM26.5167 15.62V10.7287H30.578L35.7667 15.3015V15.62H26.5167Z" fill="black"/>
<path d="M12.9499 21.5985H11.7166V22.6855H12.9499V21.5985Z" fill="black"/>
<path d="M30.2165 21.5985H28.9832V22.6855H30.2165V21.5985Z" fill="black"/>
<path d="M3.08333 19.9677H0V21.0546H3.08333V19.9677Z" fill="black"/>
<path d="M3.0834 17.7938H1.2334V18.8808H3.0834V17.7938Z" fill="black"/>
<path d="M3.08343 15.62H1.8501V16.707H3.08343V15.62Z" fill="black"/>
<path d="M8.01667 15.0764C9.60222 15.0764 11.1522 14.662 12.4705 13.8857C13.7888 13.1093 14.8163 12.0059 15.4231 10.7149C16.0299 9.42389 16.1886 8.00331 15.8793 6.63279C15.57 5.26227 14.8065 4.00337 13.6853 3.01528C12.5642 2.02719 11.1357 1.3543 9.58064 1.08168C8.02556 0.809069 6.41368 0.948984 4.94882 1.48373C3.48397 2.01848 2.23194 2.92405 1.35105 4.08592C0.470169 5.24779 0 6.61378 0 8.01114C0.00244815 9.88429 0.847845 11.6801 2.35073 13.0046C3.85362 14.3291 5.89127 15.0742 8.01667 15.0764ZM8.01667 2.03288C9.35829 2.03288 10.6698 2.3835 11.7853 3.0404C12.9008 3.6973 13.7702 4.63098 14.2837 5.72336C14.7971 6.81575 14.9314 8.01778 14.6697 9.17745C14.4079 10.3371 13.7619 11.4023 12.8132 12.2384C11.8645 13.0745 10.6559 13.6439 9.34003 13.8745C8.02419 14.1052 6.66029 13.9868 5.4208 13.5343C4.18131 13.0819 3.12189 12.3156 2.37653 11.3325C1.63117 10.3494 1.23333 9.19353 1.23333 8.01114C1.23546 6.42618 1.95081 4.90668 3.22247 3.78594C4.49413 2.6652 6.21827 2.03475 8.01667 2.03288V2.03288Z" fill="black"/>
<path d="M8.01662 12.9026C8.18016 12.9026 8.33698 12.8453 8.4526 12.7434C8.84973 12.3934 12.3333 9.25587 12.3333 6.92434C12.3333 5.91537 11.8785 4.94772 11.069 4.23426C10.2594 3.52081 9.16147 3.12 8.01662 3.12C6.87177 3.12 5.77381 3.52081 4.96427 4.23426C4.15474 4.94772 3.69995 5.91537 3.69995 6.92434C3.69995 9.25587 7.1835 12.3934 7.58064 12.7434C7.69626 12.8453 7.85308 12.9026 8.01662 12.9026ZM8.01662 4.20695C8.83407 4.20782 9.61776 4.49439 10.1958 5.00381C10.7738 5.51323 11.099 6.20391 11.1 6.92434C11.1 8.31891 9.1593 10.4738 8.01662 11.5716C6.87393 10.4738 4.93328 8.31891 4.93328 6.92434C4.93426 6.20391 5.25943 5.51323 5.83745 5.00381C6.41548 4.49439 7.19917 4.20782 8.01662 4.20695V4.20695Z" fill="black"/>
<path d="M9.8665 6.92426C9.8665 6.60179 9.758 6.28656 9.55472 6.01844C9.35144 5.75031 9.06251 5.54134 8.72447 5.41793C8.38643 5.29453 8.01445 5.26224 7.65559 5.32515C7.29672 5.38806 6.96708 5.54335 6.70836 5.77137C6.44963 5.99939 6.27343 6.2899 6.20205 6.60618C6.13067 6.92245 6.16731 7.25028 6.30733 7.5482C6.44735 7.84612 6.68447 8.10076 6.9887 8.27992C7.29293 8.45907 7.65061 8.55469 8.0165 8.55469C8.50716 8.55469 8.97771 8.38292 9.32465 8.07715C9.67159 7.77138 9.8665 7.35668 9.8665 6.92426ZM7.39984 6.92426C7.39984 6.81677 7.43601 6.71169 7.50377 6.62232C7.57153 6.53294 7.66784 6.46328 7.78052 6.42215C7.8932 6.38102 8.01719 6.37025 8.13681 6.39122C8.25643 6.41219 8.36631 6.46395 8.45255 6.53996C8.5388 6.61597 8.59753 6.71281 8.62132 6.81823C8.64512 6.92365 8.6329 7.03293 8.58623 7.13224C8.53956 7.23155 8.46052 7.31643 8.35911 7.37614C8.2577 7.43586 8.13847 7.46774 8.0165 7.46774C7.85295 7.46774 7.6961 7.41048 7.58046 7.30856C7.46481 7.20663 7.39984 7.0684 7.39984 6.92426Z" fill="black"/>
<path d="M25.8998 17.7938H23.4331V18.8808H25.8998V17.7938Z" fill="black"/>
</svg>
