<svg width="37" height="44" viewBox="0 0 37 44" fill="none" xmlns="http://www.w3.org/2000/svg">
<g clip-path="url(#clip0)" filter="url(#filter0_d)">
<path d="M10.989 10.638L16.7815 3.31116H20.2571L26.0497 10.638H10.989Z" fill="#BAF0FF"/>
<path d="M16.7823 3.31116L10.9897 10.638H12.5103L18.3028 3.31116H16.7823Z" fill="#8ADEFF"/>
<path d="M15.8901 4.43834L16.7813 3.31116H20.2569L21.148 4.43841L15.8901 4.43834Z" fill="#8ADEFF"/>
<path d="M26.0494 10.638H10.9888L11.8801 9.51074H25.1581L26.0494 10.638Z" fill="#8ADEFF"/>
<path d="M26.0495 15.7104V10.6379H10.9888V15.7104C10.9888 16.9554 12.0261 17.9648 13.3058 17.9648H13.0162C11.8965 17.9648 10.9888 18.848 10.9888 19.9374C10.9888 21.0268 11.8965 21.91 13.0162 21.91C11.8965 21.91 10.9888 22.7932 10.9888 23.8826C10.9888 24.9721 11.8965 25.8553 13.0162 25.8553H13.3058C12.0261 25.8553 10.9888 26.8646 10.9888 28.1097V32.6185C10.9888 33.8636 12.0261 34.8729 13.3058 34.8729H16.4081C16.8165 35.2234 17.3525 35.4365 17.9398 35.4365H19.0983C19.6857 35.4365 20.2216 35.2234 20.6301 34.8729H23.7324C25.012 34.8729 26.0494 33.8636 26.0494 32.6185V28.1097C26.0494 26.8646 25.012 25.8553 23.7324 25.8553H24.022C25.1417 25.8553 26.0494 24.9721 26.0494 23.8826C26.0494 22.7932 25.1417 21.91 24.022 21.91C25.1417 21.91 26.0494 21.0268 26.0494 19.9374C26.0494 18.848 25.1417 17.9648 24.022 17.9648H23.7324C25.0121 17.9648 26.0495 16.9554 26.0495 15.7104Z" fill="#8ADEFF"/>
<path d="M12.4379 32.6185V28.1097C12.4379 26.8646 13.4752 25.8552 14.7549 25.8552H14.4653C13.3456 25.8552 12.4379 24.9721 12.4379 23.8826C12.4379 22.7932 13.3456 21.91 14.4653 21.91C13.3456 21.91 12.4379 21.0268 12.4379 19.9374C12.4379 18.848 13.3456 17.9648 14.4653 17.9648H14.7549C13.4752 17.9648 12.4379 16.9554 12.4379 15.7104V10.6379H10.9897V15.7104C10.9897 16.9554 12.0271 17.9648 13.3068 17.9648H13.0172C11.8975 17.9648 10.9897 18.848 10.9897 19.9374C10.9897 21.0268 11.8975 21.91 13.0172 21.91C11.8975 21.91 10.9897 22.7932 10.9897 23.8826C10.9897 24.9721 11.8975 25.8552 13.0172 25.8552H13.3068C12.0271 25.8552 10.9897 26.8646 10.9897 28.1097V32.6185C10.9897 33.8636 12.0271 34.8729 13.3068 34.8729H14.7549C13.4752 34.8729 12.4379 33.8636 12.4379 32.6185Z" fill="#2FB6EB"/>
<path d="M17.8563 34.8728H16.4082C16.8166 35.2233 17.3526 35.4364 17.9399 35.4364H19.0984C19.1471 35.4364 19.1953 35.4345 19.2432 35.4316C18.7128 35.3996 18.2309 35.1943 17.8563 34.8728Z" fill="#2FB6EB"/>
<path d="M23.7325 25.8552H13.3058C12.0261 25.8552 10.9888 26.8646 10.9888 28.1097V32.6184C10.9888 33.8635 12.0261 34.8729 13.3058 34.8729H16.4081C16.8165 35.2234 17.3525 35.4365 17.9399 35.4365H19.0984C19.6857 35.4365 20.2217 35.2234 20.6301 34.8729H23.7324C25.0121 34.8729 26.0494 33.8635 26.0494 32.6184V28.1097C26.0495 26.8646 25.0121 25.8552 23.7325 25.8552Z" fill="#2FB6EB"/>
<path d="M24.0221 21.9101H13.0162C11.8965 21.9101 10.9888 21.0269 10.9888 19.9375C10.9888 18.848 11.8965 17.9648 13.0162 17.9648H24.022C25.1417 17.9648 26.0494 18.848 26.0494 19.9375C26.0495 21.0269 25.1418 21.9101 24.0221 21.9101Z" fill="#2FB6EB"/>
<path d="M12.4371 32.6183V28.1095C12.4371 26.8644 13.4745 25.8551 14.7542 25.8551H13.3061C12.0264 25.8551 10.989 26.8644 10.989 28.1095V32.6183C10.989 33.8634 12.0264 34.8728 13.3061 34.8728H14.7542C13.4744 34.8728 12.4371 33.8634 12.4371 32.6183Z" fill="#0097C6"/>
<path d="M17.8563 34.8728H16.4082C16.8166 35.2233 17.3526 35.4364 17.9399 35.4364H19.0984C19.1471 35.4364 19.1953 35.4345 19.2432 35.4316C18.7128 35.3996 18.2309 35.1943 17.8563 34.8728Z" fill="#00A1D3"/>
<path d="M12.4371 19.9373C12.4371 18.8479 13.3449 17.9647 14.4646 17.9647H13.0164C11.8967 17.9647 10.989 18.8479 10.989 19.9373C10.989 21.0268 11.8967 21.91 13.0164 21.91H14.4646C13.3448 21.91 12.4371 21.0268 12.4371 19.9373Z" fill="#0097C6"/>
<path d="M21.995 0.493164H15.0439V3.31115H21.995V0.493164Z" fill="#FF6243"/>
<path d="M16.2024 0.493164H15.0439V3.31115H16.2024V0.493164Z" fill="#D80027"/>
<path d="M21.995 2.18396H15.0439V3.31114H21.995V2.18396Z" fill="#D80027"/>
<path d="M26.5836 23.8826C26.5836 23.0816 26.1988 22.368 25.595 21.9099C26.1987 21.4519 26.5904 20.7383 26.5904 19.9373C26.5904 19.0941 26.1418 18.3475 25.4827 17.8942C26.1463 17.3841 26.5564 16.5951 26.5564 15.7103V10.4583L21.3599 3.87478H22.5017V0H14.4644V3.87478H15.6786L10.4097 10.4583V15.7104C10.4097 16.5952 10.8549 17.3842 11.5185 17.8943C10.8594 18.3476 10.4368 19.0941 10.4368 19.9375C10.4368 20.7384 10.8308 21.452 11.4345 21.9101C10.8308 22.3682 10.4436 23.0818 10.4436 23.8827C10.4436 24.726 10.8582 25.4725 11.5174 25.9258C10.8537 26.4359 10.4097 27.2249 10.4097 28.1097V32.6185C10.4097 34.153 11.7289 35.4365 13.3059 35.4365H16.2022V35.3902C16.6843 35.7502 17.2867 36.0001 17.94 36.0001H19.0985C19.7517 36.0001 20.3541 35.7502 20.8362 35.3902V35.4365H23.7325C25.3095 35.4365 26.5563 34.1529 26.5563 32.6185V28.1097C26.5563 27.2249 26.1473 26.4359 25.4837 25.9258C26.1429 25.4725 26.5836 24.7259 26.5836 23.8826ZM15.5506 2.81798V1.05673H21.4156V2.81798H15.5506ZM17.0489 3.87478H19.9895L24.9466 10.1448H12.0917L17.0489 3.87478ZM24.0222 22.4736C24.8407 22.4736 25.5065 23.1214 25.5065 23.9178C25.5065 24.7141 24.8407 25.362 24.0222 25.362H22.5741V26.4187H23.7326C24.7107 26.4187 25.4703 27.1578 25.4703 28.1095V32.6183C25.4703 33.5701 24.7107 34.3796 23.7326 34.3796H21.6961C21.8641 33.9569 21.9586 33.5967 21.9586 33.1819H20.8725C20.8725 34.1337 20.0767 34.9432 19.0985 34.9432H17.94C16.9618 34.9432 16.166 34.1338 16.166 33.1819H15.0799C15.0799 33.5968 15.1744 33.9569 15.3424 34.3796H13.3059C12.3278 34.3796 11.4957 33.5701 11.4957 32.6183V28.1095C11.4957 27.1578 12.3277 26.4187 13.3059 26.4187H19.0985V25.362H13.0164C12.1979 25.362 11.532 24.7141 11.532 23.9178C11.532 23.1214 12.1979 22.4736 13.0164 22.4736H19.0985V21.4168H13.0164C12.1979 21.4168 11.532 20.769 11.532 19.9726C11.532 19.1763 12.1979 18.5284 13.0164 18.5284H19.0985V17.4717H13.3059C12.3278 17.4717 11.4957 16.6622 11.4957 15.7104V11.2016H25.4703V15.7104C25.4703 16.6622 24.7107 17.4717 23.7326 17.4717H22.5741V18.5284H24.0222C24.8407 18.5284 25.5065 19.1763 25.5065 19.9726C25.5065 20.769 24.8407 21.4168 24.0222 21.4168H22.5741V22.4736H24.0222Z" fill="black"/>
<path d="M15.6233 7.85522H14.4648V8.91195H15.6233V7.85522Z" fill="white"/>
<path d="M16.782 6.72803H15.6235V7.78475H16.782V6.72803Z" fill="white"/>
<path d="M21.4158 21.3816H20.2573V22.4383H21.4158V21.3816Z" fill="white"/>
<path d="M21.4158 17.4364H20.2573V18.4931H21.4158V17.4364Z" fill="white"/>
<path d="M21.4158 25.3268H20.2573V26.3835H21.4158V25.3268Z" fill="white"/>
</g>
<defs>
<filter id="filter0_d" x="-4" y="0" width="45" height="44" filterUnits="userSpaceOnUse" color-interpolation-filters="sRGB">
<feFlood flood-opacity="0" result="BackgroundImageFix"/>
<feColorMatrix in="SourceAlpha" type="matrix" values="0 0 0 0 0 0 0 0 0 0 0 0 0 0 0 0 0 0 127 0"/>
<feOffset dy="4"/>
<feGaussianBlur stdDeviation="2"/>
<feColorMatrix type="matrix" values="0 0 0 0 0 0 0 0 0 0 0 0 0 0 0 0 0 0 0.25 0"/>
<feBlend mode="normal" in2="BackgroundImageFix" result="effect1_dropShadow"/>
<feBlend mode="normal" in="SourceGraphic" in2="effect1_dropShadow" result="shape"/>
</filter>
<clipPath id="clip0">
<rect width="37" height="36" fill="white"/>
</clipPath>
</defs>
</svg>
